<?xml version="1.0" encoding="UTF-8" standalone="no"?>
<!DOCTYPE svg PUBLIC "-//W3C//DTD SVG 1.1//EN"
 "http://www.w3.org/Graphics/SVG/1.1/DTD/svg11.dtd">
<!-- Generated by graphviz version 2.38.0 (20140413.2041)
 -->
<!-- Title: grafi Pages: 1 -->
<svg width="1344pt" height="183pt"
 viewBox="0.00 0.00 1344.00 183.00" xmlns="http://www.w3.org/2000/svg" xmlns:xlink="http://www.w3.org/1999/xlink">
<g id="graph0" class="graph" transform="scale(1 1) rotate(0) translate(4 179)">
<title>grafi</title>
<polygon fill="white" stroke="none" points="-4,4 -4,-179 1340,-179 1340,4 -4,4"/>
<text text-anchor="middle" x="668" y="-159.8" font-family="Times New Roman,serif" font-size="14.00">Hospital San Juan de Dios</text>
<g id="clust7" class="cluster"><title>cluster_7</title>
<polygon fill="#a2cd5a" stroke="#a2cd5a" points="1020,-8 1020,-144 1328,-144 1328,-8 1020,-8"/>
<text text-anchor="middle" x="1174" y="-128.8" font-family="Times New Roman,serif" font-size="14.00">Consulta 2</text>
</g>
<g id="clust8" class="cluster"><title>cluster_8</title>
<polygon fill="#838b83" stroke="#838b83" points="1186,-16 1186,-113 1320,-113 1320,-16 1186,-16"/>
<text text-anchor="middle" x="1253" y="-97.8" font-family="Times New Roman,serif" font-size="14.00">Paciente en Atencion</text>
</g>
<g id="clust9" class="cluster"><title>cluster_9</title>
<polygon fill="gray" stroke="gray" points="1028,-16 1028,-113 1178,-113 1178,-16 1028,-16"/>
<text text-anchor="middle" x="1103" y="-97.8" font-family="Times New Roman,serif" font-size="14.00">En espera</text>
</g>
<g id="clust4" class="cluster"><title>cluster_4</title>
<polygon fill="#eead0e" stroke="#eead0e" points="780,-8 780,-144 1012,-144 1012,-8 780,-8"/>
<text text-anchor="middle" x="896" y="-128.8" font-family="Times New Roman,serif" font-size="14.00">Consulta 1</text>
</g>
<g id="clust6" class="cluster"><title>cluster_6</title>
<polygon fill="gray" stroke="gray" points="930,-16 930,-113 1004,-113 1004,-16 930,-16"/>
<text text-anchor="middle" x="967" y="-97.8" font-family="Times New Roman,serif" font-size="14.00">En espera</text>
</g>
<g id="clust5" class="cluster"><title>cluster_5</title>
<polygon fill="#838b83" stroke="#838b83" points="788,-16 788,-113 922,-113 922,-16 788,-16"/>
<text text-anchor="middle" x="855" y="-97.8" font-family="Times New Roman,serif" font-size="14.00">Paciente en Atencion</text>
</g>
<g id="clust1" class="cluster"><title>cluster_1</title>
<polygon fill="#ff7f24" stroke="#ff7f24" points="8,-8 8,-144 772,-144 772,-8 8,-8"/>
<text text-anchor="middle" x="390" y="-128.8" font-family="Times New Roman,serif" font-size="14.00">Rayos X</text>
</g>
<g id="clust2" class="cluster"><title>cluster_2</title>
<polygon fill="#838b83" stroke="#838b83" points="630,-16 630,-113 764,-113 764,-16 630,-16"/>
<text text-anchor="middle" x="697" y="-97.8" font-family="Times New Roman,serif" font-size="14.00">Paciente en Atencion</text>
</g>
<g id="clust3" class="cluster"><title>cluster_3</title>
<polygon fill="gray" stroke="gray" points="16,-16 16,-113 622,-113 622,-16 16,-16"/>
<text text-anchor="middle" x="319" y="-97.8" font-family="Times New Roman,serif" font-size="14.00">En espera</text>
</g>
<!-- P3 -->
<g id="node1" class="node"><title>P3</title>
<ellipse fill="lightgrey" stroke="black" cx="697" cy="-53" rx="29" ry="29"/>
<text text-anchor="middle" x="697" y="-49.3" font-family="Times New Roman,serif" font-size="14.00">P3</text>
</g>
<!-- P6 -->
<g id="node2" class="node"><title>P6</title>
<ellipse fill="lightgrey" stroke="black" cx="585" cy="-53" rx="29" ry="29"/>
<text text-anchor="middle" x="585" y="-49.3" font-family="Times New Roman,serif" font-size="14.00">P6</text>
</g>
<!-- P8 -->
<g id="node3" class="node"><title>P8</title>
<ellipse fill="lightgrey" stroke="black" cx="509" cy="-53" rx="29" ry="29"/>
<text text-anchor="middle" x="509" y="-49.3" font-family="Times New Roman,serif" font-size="14.00">P8</text>
</g>
<!-- P9 -->
<g id="node4" class="node"><title>P9</title>
<ellipse fill="lightgrey" stroke="black" cx="433" cy="-53" rx="29" ry="29"/>
<text text-anchor="middle" x="433" y="-49.3" font-family="Times New Roman,serif" font-size="14.00">P9</text>
</g>
<!-- P10 -->
<g id="node5" class="node"><title>P10</title>
<ellipse fill="lightgrey" stroke="black" cx="357" cy="-53" rx="29" ry="29"/>
<text text-anchor="middle" x="357" y="-49.3" font-family="Times New Roman,serif" font-size="14.00">P10</text>
</g>
<!-- P12 -->
<g id="node6" class="node"><title>P12</title>
<ellipse fill="lightgrey" stroke="black" cx="281" cy="-53" rx="29" ry="29"/>
<text text-anchor="middle" x="281" y="-49.3" font-family="Times New Roman,serif" font-size="14.00">P12</text>
</g>
<!-- P14 -->
<g id="node7" class="node"><title>P14</title>
<ellipse fill="lightgrey" stroke="black" cx="205" cy="-53" rx="29" ry="29"/>
<text text-anchor="middle" x="205" y="-49.3" font-family="Times New Roman,serif" font-size="14.00">P14</text>
</g>
<!-- P16 -->
<g id="node8" class="node"><title>P16</title>
<ellipse fill="lightgrey" stroke="black" cx="129" cy="-53" rx="29" ry="29"/>
<text text-anchor="middle" x="129" y="-49.3" font-family="Times New Roman,serif" font-size="14.00">P16</text>
</g>
<!-- P17 -->
<g id="node9" class="node"><title>P17</title>
<ellipse fill="lightgrey" stroke="black" cx="53" cy="-53" rx="29" ry="29"/>
<text text-anchor="middle" x="53" y="-49.3" font-family="Times New Roman,serif" font-size="14.00">P17</text>
</g>
<!-- P5 -->
<g id="node10" class="node"><title>P5</title>
<ellipse fill="lightgrey" stroke="black" cx="855" cy="-53" rx="29" ry="29"/>
<text text-anchor="middle" x="855" y="-49.3" font-family="Times New Roman,serif" font-size="14.00">P5</text>
</g>
<!-- P15 -->
<g id="node11" class="node"><title>P15</title>
<ellipse fill="lightgrey" stroke="black" cx="967" cy="-53" rx="29" ry="29"/>
<text text-anchor="middle" x="967" y="-49.3" font-family="Times New Roman,serif" font-size="14.00">P15</text>
</g>
<!-- P7 -->
<g id="node12" class="node"><title>P7</title>
<ellipse fill="lightgrey" stroke="black" cx="1253" cy="-53" rx="29" ry="29"/>
<text text-anchor="middle" x="1253" y="-49.3" font-family="Times New Roman,serif" font-size="14.00">P7</text>
</g>
<!-- P11 -->
<g id="node13" class="node"><title>P11</title>
<ellipse fill="lightgrey" stroke="black" cx="1141" cy="-53" rx="29" ry="29"/>
<text text-anchor="middle" x="1141" y="-49.3" font-family="Times New Roman,serif" font-size="14.00">P11</text>
</g>
<!-- P13 -->
<g id="node14" class="node"><title>P13</title>
<ellipse fill="lightgrey" stroke="black" cx="1065" cy="-53" rx="29" ry="29"/>
<text text-anchor="middle" x="1065" y="-49.3" font-family="Times New Roman,serif" font-size="14.00">P13</text>
</g>
</g>
</svg>
