<?xml version="1.0" encoding="UTF-8" standalone="no"?>
<!DOCTYPE svg PUBLIC "-//W3C//DTD SVG 1.1//EN"
 "http://www.w3.org/Graphics/SVG/1.1/DTD/svg11.dtd">
<!-- Generated by graphviz version 2.38.0 (20140413.2041)
 -->
<!-- Title: grafi Pages: 1 -->
<svg width="812pt" height="183pt"
 viewBox="0.00 0.00 812.00 183.00" xmlns="http://www.w3.org/2000/svg" xmlns:xlink="http://www.w3.org/1999/xlink">
<g id="graph0" class="graph" transform="scale(1 1) rotate(0) translate(4 179)">
<title>grafi</title>
<polygon fill="white" stroke="none" points="-4,4 -4,-179 808,-179 808,4 -4,4"/>
<text text-anchor="middle" x="402" y="-159.8" font-family="Times New Roman,serif" font-size="14.00">Hospital San Juan de Dios</text>
<g id="clust7" class="cluster"><title>cluster_9</title>
<polygon fill="#a2cd5a" stroke="#a2cd5a" points="564,-8 564,-144 796,-144 796,-8 564,-8"/>
<text text-anchor="middle" x="680" y="-128.8" font-family="Times New Roman,serif" font-size="14.00">Consulta 2</text>
</g>
<g id="clust8" class="cluster"><title>cluster_10</title>
<polygon fill="#838b83" stroke="#838b83" points="654,-16 654,-113 788,-113 788,-16 654,-16"/>
<text text-anchor="middle" x="721" y="-97.8" font-family="Times New Roman,serif" font-size="14.00">Paciente en Atencion</text>
</g>
<g id="clust9" class="cluster"><title>cluster_12</title>
<polygon fill="gray" stroke="gray" points="572,-16 572,-113 646,-113 646,-16 572,-16"/>
<text text-anchor="middle" x="609" y="-97.8" font-family="Times New Roman,serif" font-size="14.00">En espera</text>
</g>
<g id="clust1" class="cluster"><title>cluster_1</title>
<polygon fill="#ff7f24" stroke="#ff7f24" points="8,-8 8,-144 316,-144 316,-8 8,-8"/>
<text text-anchor="middle" x="162" y="-128.8" font-family="Times New Roman,serif" font-size="14.00">Rayos X</text>
</g>
<g id="clust3" class="cluster"><title>cluster_3</title>
<polygon fill="gray" stroke="gray" points="158,-16 158,-113 308,-113 308,-16 158,-16"/>
<text text-anchor="middle" x="233" y="-97.8" font-family="Times New Roman,serif" font-size="14.00">En espera</text>
</g>
<g id="clust2" class="cluster"><title>cluster_2</title>
<polygon fill="#838b83" stroke="#838b83" points="16,-16 16,-113 150,-113 150,-16 16,-16"/>
<text text-anchor="middle" x="83" y="-97.8" font-family="Times New Roman,serif" font-size="14.00">Paciente en Atencion</text>
</g>
<g id="clust4" class="cluster"><title>cluster_4</title>
<polygon fill="#eead0e" stroke="#eead0e" points="324,-8 324,-144 556,-144 556,-8 324,-8"/>
<text text-anchor="middle" x="440" y="-128.8" font-family="Times New Roman,serif" font-size="14.00">Consulta 1</text>
</g>
<g id="clust6" class="cluster"><title>cluster_7</title>
<polygon fill="gray" stroke="gray" points="474,-16 474,-113 548,-113 548,-16 474,-16"/>
<text text-anchor="middle" x="511" y="-97.8" font-family="Times New Roman,serif" font-size="14.00">En espera</text>
</g>
<g id="clust5" class="cluster"><title>cluster_5</title>
<polygon fill="#838b83" stroke="#838b83" points="332,-16 332,-113 466,-113 466,-16 332,-16"/>
<text text-anchor="middle" x="399" y="-97.8" font-family="Times New Roman,serif" font-size="14.00">Paciente en Atencion</text>
</g>
<!-- P14 -->
<g id="node1" class="node"><title>P14</title>
<ellipse fill="lightgrey" stroke="black" cx="83" cy="-53" rx="29" ry="29"/>
<text text-anchor="middle" x="83" y="-49.3" font-family="Times New Roman,serif" font-size="14.00">P14</text>
</g>
<!-- P16 -->
<g id="node2" class="node"><title>P16</title>
<ellipse fill="lightgrey" stroke="black" cx="271" cy="-53" rx="29" ry="29"/>
<text text-anchor="middle" x="271" y="-49.3" font-family="Times New Roman,serif" font-size="14.00">P16</text>
</g>
<!-- P17 -->
<g id="node3" class="node"><title>P17</title>
<ellipse fill="lightgrey" stroke="black" cx="195" cy="-53" rx="29" ry="29"/>
<text text-anchor="middle" x="195" y="-49.3" font-family="Times New Roman,serif" font-size="14.00">P17</text>
</g>
<!-- inv6 -->
<g id="node4" class="node"><title>inv6</title>
<polygon fill="lightgrey" stroke="none" points="428,-82 370,-82 370,-24 428,-24 428,-82"/>
</g>
<!-- inv8 -->
<g id="node5" class="node"><title>inv8</title>
<polygon fill="lightgrey" stroke="none" points="540,-82 482,-82 482,-24 540,-24 540,-82"/>
</g>
<!-- inv11 -->
<g id="node6" class="node"><title>inv11</title>
<polygon fill="lightgrey" stroke="none" points="750,-82 692,-82 692,-24 750,-24 750,-82"/>
</g>
<!-- inv13 -->
<g id="node7" class="node"><title>inv13</title>
<polygon fill="lightgrey" stroke="none" points="638,-82 580,-82 580,-24 638,-24 638,-82"/>
</g>
</g>
</svg>
