<?xml version="1.0" encoding="UTF-8" standalone="no"?>
<!DOCTYPE svg PUBLIC "-//W3C//DTD SVG 1.1//EN"
 "http://www.w3.org/Graphics/SVG/1.1/DTD/svg11.dtd">
<!-- Generated by graphviz version 2.38.0 (20140413.2041)
 -->
<!-- Title: grafi Pages: 1 -->
<svg width="789pt" height="174pt"
 viewBox="0.00 0.00 789.00 174.40" xmlns="http://www.w3.org/2000/svg" xmlns:xlink="http://www.w3.org/1999/xlink">
<g id="graph0" class="graph" transform="scale(1 1) rotate(0) translate(4 170.396)">
<title>grafi</title>
<polygon fill="white" stroke="none" points="-4,4 -4,-170.396 785,-170.396 785,4 -4,4"/>
<text text-anchor="middle" x="390.5" y="-151.196" font-family="Times New Roman,serif" font-size="14.00">Hospital San Juan de Dios</text>
<g id="clust1" class="cluster"><title>cluster_1</title>
<polygon fill="#ff7f24" stroke="#ff7f24" points="8,-8 8,-135.396 299,-135.396 299,-8 8,-8"/>
<text text-anchor="middle" x="153.5" y="-120.196" font-family="Times New Roman,serif" font-size="14.00">Rayos X</text>
</g>
<g id="clust3" class="cluster"><title>cluster_3</title>
<polygon fill="gray" stroke="gray" points="158,-16 158,-104.396 291,-104.396 291,-16 158,-16"/>
<text text-anchor="middle" x="224.5" y="-89.1956" font-family="Times New Roman,serif" font-size="14.00">En espera</text>
</g>
<g id="clust2" class="cluster"><title>cluster_2</title>
<polygon fill="#838b83" stroke="#838b83" points="16,-16 16,-104.396 150,-104.396 150,-16 16,-16"/>
<text text-anchor="middle" x="83" y="-89.1956" font-family="Times New Roman,serif" font-size="14.00">Paciente en Atencion</text>
</g>
<g id="clust7" class="cluster"><title>cluster_9</title>
<polygon fill="#a2cd5a" stroke="#a2cd5a" points="544,-14.6978 544,-128.698 773,-128.698 773,-14.6978 544,-14.6978"/>
<text text-anchor="middle" x="658.5" y="-113.498" font-family="Times New Roman,serif" font-size="14.00">Consulta 2</text>
</g>
<g id="clust8" class="cluster"><title>cluster_10</title>
<polygon fill="#838b83" stroke="#838b83" points="631,-22.6978 631,-97.6978 765,-97.6978 765,-22.6978 631,-22.6978"/>
<text text-anchor="middle" x="698" y="-82.4978" font-family="Times New Roman,serif" font-size="14.00">Paciente en Atencion</text>
</g>
<g id="clust9" class="cluster"><title>cluster_12</title>
<polygon fill="gray" stroke="gray" points="552,-22.6978 552,-97.6978 623,-97.6978 623,-22.6978 552,-22.6978"/>
<text text-anchor="middle" x="587.5" y="-82.4978" font-family="Times New Roman,serif" font-size="14.00">En espera</text>
</g>
<g id="clust4" class="cluster"><title>cluster_4</title>
<polygon fill="#eead0e" stroke="#eead0e" points="307,-14.6978 307,-128.698 536,-128.698 536,-14.6978 307,-14.6978"/>
<text text-anchor="middle" x="421.5" y="-113.498" font-family="Times New Roman,serif" font-size="14.00">Consulta 1</text>
</g>
<g id="clust6" class="cluster"><title>cluster_7</title>
<polygon fill="gray" stroke="gray" points="457,-22.6978 457,-97.6978 528,-97.6978 528,-22.6978 457,-22.6978"/>
<text text-anchor="middle" x="492.5" y="-82.4978" font-family="Times New Roman,serif" font-size="14.00">En espera</text>
</g>
<g id="clust5" class="cluster"><title>cluster_5</title>
<polygon fill="#838b83" stroke="#838b83" points="315,-22.6978 315,-97.6978 449,-97.6978 449,-22.6978 315,-22.6978"/>
<text text-anchor="middle" x="382" y="-82.4978" font-family="Times New Roman,serif" font-size="14.00">Paciente en Atencion</text>
</g>
<!-- P14 -->
<g id="node1" class="node"><title>P14</title>
<ellipse fill="lightgrey" stroke="black" cx="83" cy="-48.6978" rx="24.8972" ry="24.8972"/>
<text text-anchor="middle" x="83" y="-44.9978" font-family="Times New Roman,serif" font-size="14.00">P14</text>
</g>
<!-- P16 -->
<g id="node2" class="node"><title>P16</title>
<ellipse fill="lightgrey" stroke="black" cx="258" cy="-48.6978" rx="24.8972" ry="24.8972"/>
<text text-anchor="middle" x="258" y="-44.9978" font-family="Times New Roman,serif" font-size="14.00">P16</text>
</g>
<!-- P17 -->
<g id="node3" class="node"><title>P17</title>
<ellipse fill="lightgrey" stroke="black" cx="191" cy="-48.6978" rx="24.8972" ry="24.8972"/>
<text text-anchor="middle" x="191" y="-44.9978" font-family="Times New Roman,serif" font-size="14.00">P17</text>
</g>
<!-- inv6 -->
<g id="node4" class="node"><title>inv6</title>
<polygon fill="lightgrey" stroke="none" points="409,-66.6978 355,-66.6978 355,-30.6978 409,-30.6978 409,-66.6978"/>
</g>
<!-- inv8 -->
<g id="node5" class="node"><title>inv8</title>
<polygon fill="lightgrey" stroke="none" points="519,-66.6978 465,-66.6978 465,-30.6978 519,-30.6978 519,-66.6978"/>
</g>
<!-- inv11 -->
<g id="node6" class="node"><title>inv11</title>
<polygon fill="lightgrey" stroke="none" points="725,-66.6978 671,-66.6978 671,-30.6978 725,-30.6978 725,-66.6978"/>
</g>
<!-- inv13 -->
<g id="node7" class="node"><title>inv13</title>
<polygon fill="lightgrey" stroke="none" points="614,-66.6978 560,-66.6978 560,-30.6978 614,-30.6978 614,-66.6978"/>
</g>
</g>
</svg>
