<?xml version="1.0" encoding="UTF-8" standalone="no"?>
<!DOCTYPE svg PUBLIC "-//W3C//DTD SVG 1.1//EN"
 "http://www.w3.org/Graphics/SVG/1.1/DTD/svg11.dtd">
<!-- Generated by graphviz version 2.38.0 (20140413.2041)
 -->
<!-- Title: grafi Pages: 1 -->
<svg width="521pt" height="701pt"
 viewBox="0.00 0.00 520.99 701.06" xmlns="http://www.w3.org/2000/svg" xmlns:xlink="http://www.w3.org/1999/xlink">
<g id="graph0" class="graph" transform="scale(1 1) rotate(0) translate(4 697.057)">
<title>grafi</title>
<polygon fill="white" stroke="none" points="-4,4 -4,-697.057 516.99,-697.057 516.99,4 -4,4"/>
<text text-anchor="middle" x="256.495" y="-677.857" font-family="Times New Roman,serif" font-size="14.00">Organigrama Hospital General San Juan de Dios</text>
<!-- A1 -->
<g id="node1" class="node"><title>A1</title>
<ellipse fill="none" stroke="black" cx="388" cy="-93.4481" rx="21.3963" ry="21.3963"/>
<text text-anchor="middle" x="388" y="-89.7481" font-family="Times New Roman,serif" font-size="14.00">A1</text>
</g>
<!-- SA1 -->
<g id="node2" class="node"><title>SA1</title>
<ellipse fill="none" stroke="black" cx="352" cy="-18" rx="27" ry="18"/>
<text text-anchor="middle" x="352" y="-14.3" font-family="Times New Roman,serif" font-size="14.00">SA1</text>
</g>
<!-- A1&#45;&gt;SA1 -->
<g id="edge1" class="edge"><title>A1&#45;&gt;SA1</title>
<path fill="none" stroke="black" d="M378.916,-73.914C374.541,-64.9897 369.228,-54.148 364.481,-44.4631"/>
<polygon fill="black" stroke="black" points="367.522,-42.7167 359.978,-35.2777 361.237,-45.7976 367.522,-42.7167"/>
</g>
<!-- SA2 -->
<g id="node3" class="node"><title>SA2</title>
<ellipse fill="none" stroke="black" cx="424" cy="-18" rx="27" ry="18"/>
<text text-anchor="middle" x="424" y="-14.3" font-family="Times New Roman,serif" font-size="14.00">SA2</text>
</g>
<!-- A1&#45;&gt;SA2 -->
<g id="edge2" class="edge"><title>A1&#45;&gt;SA2</title>
<path fill="none" stroke="black" d="M397.084,-73.914C401.459,-64.9897 406.772,-54.148 411.519,-44.4631"/>
<polygon fill="black" stroke="black" points="414.763,-45.7976 416.022,-35.2777 408.478,-42.7167 414.763,-45.7976"/>
</g>
<!-- CEO -->
<g id="node4" class="node"><title>CEO</title>
<ellipse fill="none" stroke="black" cx="283" cy="-640.809" rx="29.4969" ry="29.4969"/>
<text text-anchor="middle" x="283" y="-637.109" font-family="Times New Roman,serif" font-size="14.00">CEO</text>
</g>
<!-- EncargadoGeneral -->
<g id="node5" class="node"><title>EncargadoGeneral</title>
<ellipse fill="none" stroke="black" cx="283" cy="-498.219" rx="77.1866" ry="77.1866"/>
<text text-anchor="middle" x="283" y="-494.519" font-family="Times New Roman,serif" font-size="14.00">EncargadoGeneral</text>
</g>
<!-- CEO&#45;&gt;EncargadoGeneral -->
<g id="edge3" class="edge"><title>CEO&#45;&gt;EncargadoGeneral</title>
<path fill="none" stroke="black" d="M283,-611.359C283,-603.64 283,-594.862 283,-585.697"/>
<polygon fill="black" stroke="black" points="286.5,-585.631 283,-575.631 279.5,-585.631 286.5,-585.631"/>
</g>
<!-- RepresentanteBodega -->
<g id="node6" class="node"><title>RepresentanteBodega</title>
<ellipse fill="none" stroke="black" cx="171" cy="-267.886" rx="89.8845" ry="89.8845"/>
<text text-anchor="middle" x="171" y="-264.186" font-family="Times New Roman,serif" font-size="14.00">RepresentanteBodega</text>
</g>
<!-- EncargadoGeneral&#45;&gt;RepresentanteBodega -->
<g id="edge9" class="edge"><title>EncargadoGeneral&#45;&gt;RepresentanteBodega</title>
<path fill="none" stroke="black" d="M249.244,-428.402C238.384,-406.26 226.191,-381.402 214.72,-358.017"/>
<polygon fill="black" stroke="black" points="217.741,-356.229 210.195,-348.793 211.457,-359.312 217.741,-356.229"/>
</g>
<!-- RepresentanteAdministracion -->
<g id="node12" class="node"><title>RepresentanteAdministracion</title>
<ellipse fill="none" stroke="black" cx="396" cy="-267.886" rx="116.979" ry="116.979"/>
<text text-anchor="middle" x="396" y="-264.186" font-family="Times New Roman,serif" font-size="14.00">RepresentanteAdministracion</text>
</g>
<!-- EncargadoGeneral&#45;&gt;RepresentanteAdministracion -->
<g id="edge10" class="edge"><title>EncargadoGeneral&#45;&gt;RepresentanteAdministracion</title>
<path fill="none" stroke="black" d="M317.057,-428.402C324.282,-413.803 332.092,-398.022 339.891,-382.262"/>
<polygon fill="black" stroke="black" points="343.179,-383.509 344.478,-372.994 336.905,-380.404 343.179,-383.509"/>
</g>
<!-- B1 -->
<g id="node7" class="node"><title>B1</title>
<ellipse fill="none" stroke="black" cx="27" cy="-93.4481" rx="27" ry="18"/>
<text text-anchor="middle" x="27" y="-89.7481" font-family="Times New Roman,serif" font-size="14.00">B1</text>
</g>
<!-- RepresentanteBodega&#45;&gt;B1 -->
<g id="edge4" class="edge"><title>RepresentanteBodega&#45;&gt;B1</title>
<path fill="none" stroke="black" d="M113.674,-198.238C89.6846,-169.512 63.426,-138.068 46.1703,-117.404"/>
<polygon fill="black" stroke="black" points="48.6764,-114.945 39.5801,-109.513 43.3034,-119.432 48.6764,-114.945"/>
</g>
<!-- B2 -->
<g id="node8" class="node"><title>B2</title>
<ellipse fill="none" stroke="black" cx="99" cy="-93.4481" rx="27" ry="18"/>
<text text-anchor="middle" x="99" y="-89.7481" font-family="Times New Roman,serif" font-size="14.00">B2</text>
</g>
<!-- RepresentanteBodega&#45;&gt;B2 -->
<g id="edge5" class="edge"><title>RepresentanteBodega&#45;&gt;B2</title>
<path fill="none" stroke="black" d="M136.792,-184.959C127.026,-161.569 117.083,-137.756 109.849,-120.43"/>
<polygon fill="black" stroke="black" points="113.007,-118.91 105.924,-111.03 106.547,-121.607 113.007,-118.91"/>
</g>
<!-- B3 -->
<g id="node9" class="node"><title>B3</title>
<ellipse fill="none" stroke="black" cx="171" cy="-93.4481" rx="27" ry="18"/>
<text text-anchor="middle" x="171" y="-89.7481" font-family="Times New Roman,serif" font-size="14.00">B3</text>
</g>
<!-- RepresentanteBodega&#45;&gt;B3 -->
<g id="edge6" class="edge"><title>RepresentanteBodega&#45;&gt;B3</title>
<path fill="none" stroke="black" d="M171,-178.141C171,-157.689 171,-137.426 171,-121.961"/>
<polygon fill="black" stroke="black" points="174.5,-121.615 171,-111.615 167.5,-121.615 174.5,-121.615"/>
</g>
<!-- B4 -->
<g id="node10" class="node"><title>B4</title>
<ellipse fill="none" stroke="black" cx="243" cy="-93.4481" rx="27" ry="18"/>
<text text-anchor="middle" x="243" y="-89.7481" font-family="Times New Roman,serif" font-size="14.00">B4</text>
</g>
<!-- RepresentanteBodega&#45;&gt;B4 -->
<g id="edge7" class="edge"><title>RepresentanteBodega&#45;&gt;B4</title>
<path fill="none" stroke="black" d="M205.208,-184.959C214.974,-161.569 224.917,-137.756 232.151,-120.43"/>
<polygon fill="black" stroke="black" points="235.453,-121.607 236.076,-111.03 228.993,-118.91 235.453,-121.607"/>
</g>
<!-- B5 -->
<g id="node11" class="node"><title>B5</title>
<ellipse fill="none" stroke="black" cx="315" cy="-93.4481" rx="27" ry="18"/>
<text text-anchor="middle" x="315" y="-89.7481" font-family="Times New Roman,serif" font-size="14.00">B5</text>
</g>
<!-- RepresentanteBodega&#45;&gt;B5 -->
<g id="edge8" class="edge"><title>RepresentanteBodega&#45;&gt;B5</title>
<path fill="none" stroke="black" d="M228.326,-198.238C252.315,-169.512 278.574,-138.068 295.83,-117.404"/>
<polygon fill="black" stroke="black" points="298.697,-119.432 302.42,-109.513 293.324,-114.945 298.697,-119.432"/>
</g>
<!-- RepresentanteAdministracion&#45;&gt;A1 -->
<g id="edge11" class="edge"><title>RepresentanteAdministracion&#45;&gt;A1</title>
<path fill="none" stroke="black" d="M390.619,-150.911C390.189,-141.635 389.783,-132.883 389.425,-125.164"/>
<polygon fill="black" stroke="black" points="392.913,-124.818 388.953,-114.991 385.92,-125.143 392.913,-124.818"/>
</g>
<!-- A2 -->
<g id="node13" class="node"><title>A2</title>
<ellipse fill="none" stroke="black" cx="454" cy="-93.4481" rx="27" ry="18"/>
<text text-anchor="middle" x="454" y="-89.7481" font-family="Times New Roman,serif" font-size="14.00">A2</text>
</g>
<!-- RepresentanteAdministracion&#45;&gt;A2 -->
<g id="edge12" class="edge"><title>RepresentanteAdministracion&#45;&gt;A2</title>
<path fill="none" stroke="black" d="M433.061,-156.702C437.51,-143.475 441.684,-131.066 445.116,-120.86"/>
<polygon fill="black" stroke="black" points="448.535,-121.674 448.406,-111.08 441.9,-119.442 448.535,-121.674"/>
</g>
</g>
</svg>
