<?xml version="1.0" encoding="UTF-8" standalone="no"?>
<!DOCTYPE svg PUBLIC "-//W3C//DTD SVG 1.1//EN"
 "http://www.w3.org/Graphics/SVG/1.1/DTD/svg11.dtd">
<!-- Generated by graphviz version 2.38.0 (20140413.2041)
 -->
<!-- Title: grafi Pages: 1 -->
<svg width="923pt" height="174pt"
 viewBox="0.00 0.00 923.00 174.40" xmlns="http://www.w3.org/2000/svg" xmlns:xlink="http://www.w3.org/1999/xlink">
<g id="graph0" class="graph" transform="scale(1 1) rotate(0) translate(4 170.396)">
<title>grafi</title>
<polygon fill="white" stroke="none" points="-4,4 -4,-170.396 919,-170.396 919,4 -4,4"/>
<text text-anchor="middle" x="457.5" y="-151.196" font-family="Times New Roman,serif" font-size="14.00">Hospital San Juan de Dios</text>
<g id="clust1" class="cluster"><title>cluster_1</title>
<polygon fill="#ff7f24" stroke="#ff7f24" points="8,-8 8,-135.396 433,-135.396 433,-8 8,-8"/>
<text text-anchor="middle" x="220.5" y="-120.196" font-family="Times New Roman,serif" font-size="14.00">Rayos X</text>
</g>
<g id="clust3" class="cluster"><title>cluster_3</title>
<polygon fill="gray" stroke="gray" points="158,-16 158,-104.396 425,-104.396 425,-16 158,-16"/>
<text text-anchor="middle" x="291.5" y="-89.1956" font-family="Times New Roman,serif" font-size="14.00">En espera</text>
</g>
<g id="clust2" class="cluster"><title>cluster_2</title>
<polygon fill="#838b83" stroke="#838b83" points="16,-16 16,-104.396 150,-104.396 150,-16 16,-16"/>
<text text-anchor="middle" x="83" y="-89.1956" font-family="Times New Roman,serif" font-size="14.00">Paciente en Atencion</text>
</g>
<g id="clust7" class="cluster"><title>cluster_9</title>
<polygon fill="#a2cd5a" stroke="#a2cd5a" points="678,-14.6978 678,-128.698 907,-128.698 907,-14.6978 678,-14.6978"/>
<text text-anchor="middle" x="792.5" y="-113.498" font-family="Times New Roman,serif" font-size="14.00">Consulta 2</text>
</g>
<g id="clust8" class="cluster"><title>cluster_10</title>
<polygon fill="#838b83" stroke="#838b83" points="765,-22.6978 765,-97.6978 899,-97.6978 899,-22.6978 765,-22.6978"/>
<text text-anchor="middle" x="832" y="-82.4978" font-family="Times New Roman,serif" font-size="14.00">Paciente en Atencion</text>
</g>
<g id="clust9" class="cluster"><title>cluster_12</title>
<polygon fill="gray" stroke="gray" points="686,-22.6978 686,-97.6978 757,-97.6978 757,-22.6978 686,-22.6978"/>
<text text-anchor="middle" x="721.5" y="-82.4978" font-family="Times New Roman,serif" font-size="14.00">En espera</text>
</g>
<g id="clust4" class="cluster"><title>cluster_4</title>
<polygon fill="#eead0e" stroke="#eead0e" points="441,-14.6978 441,-128.698 670,-128.698 670,-14.6978 441,-14.6978"/>
<text text-anchor="middle" x="555.5" y="-113.498" font-family="Times New Roman,serif" font-size="14.00">Consulta 1</text>
</g>
<g id="clust6" class="cluster"><title>cluster_7</title>
<polygon fill="gray" stroke="gray" points="591,-22.6978 591,-97.6978 662,-97.6978 662,-22.6978 591,-22.6978"/>
<text text-anchor="middle" x="626.5" y="-82.4978" font-family="Times New Roman,serif" font-size="14.00">En espera</text>
</g>
<g id="clust5" class="cluster"><title>cluster_5</title>
<polygon fill="#838b83" stroke="#838b83" points="449,-22.6978 449,-97.6978 583,-97.6978 583,-22.6978 449,-22.6978"/>
<text text-anchor="middle" x="516" y="-82.4978" font-family="Times New Roman,serif" font-size="14.00">Paciente en Atencion</text>
</g>
<!-- P10 -->
<g id="node1" class="node"><title>P10</title>
<ellipse fill="lightgrey" stroke="black" cx="83" cy="-48.6978" rx="24.8972" ry="24.8972"/>
<text text-anchor="middle" x="83" y="-44.9978" font-family="Times New Roman,serif" font-size="14.00">P10</text>
</g>
<!-- P12 -->
<g id="node2" class="node"><title>P12</title>
<ellipse fill="lightgrey" stroke="black" cx="392" cy="-48.6978" rx="24.8972" ry="24.8972"/>
<text text-anchor="middle" x="392" y="-44.9978" font-family="Times New Roman,serif" font-size="14.00">P12</text>
</g>
<!-- P14 -->
<g id="node3" class="node"><title>P14</title>
<ellipse fill="lightgrey" stroke="black" cx="325" cy="-48.6978" rx="24.8972" ry="24.8972"/>
<text text-anchor="middle" x="325" y="-44.9978" font-family="Times New Roman,serif" font-size="14.00">P14</text>
</g>
<!-- P16 -->
<g id="node4" class="node"><title>P16</title>
<ellipse fill="lightgrey" stroke="black" cx="258" cy="-48.6978" rx="24.8972" ry="24.8972"/>
<text text-anchor="middle" x="258" y="-44.9978" font-family="Times New Roman,serif" font-size="14.00">P16</text>
</g>
<!-- P17 -->
<g id="node5" class="node"><title>P17</title>
<ellipse fill="lightgrey" stroke="black" cx="191" cy="-48.6978" rx="24.8972" ry="24.8972"/>
<text text-anchor="middle" x="191" y="-44.9978" font-family="Times New Roman,serif" font-size="14.00">P17</text>
</g>
<!-- inv6 -->
<g id="node6" class="node"><title>inv6</title>
<polygon fill="lightgrey" stroke="none" points="543,-66.6978 489,-66.6978 489,-30.6978 543,-30.6978 543,-66.6978"/>
</g>
<!-- inv8 -->
<g id="node7" class="node"><title>inv8</title>
<polygon fill="lightgrey" stroke="none" points="653,-66.6978 599,-66.6978 599,-30.6978 653,-30.6978 653,-66.6978"/>
</g>
<!-- inv11 -->
<g id="node8" class="node"><title>inv11</title>
<polygon fill="lightgrey" stroke="none" points="859,-66.6978 805,-66.6978 805,-30.6978 859,-30.6978 859,-66.6978"/>
</g>
<!-- inv13 -->
<g id="node9" class="node"><title>inv13</title>
<polygon fill="lightgrey" stroke="none" points="748,-66.6978 694,-66.6978 694,-30.6978 748,-30.6978 748,-66.6978"/>
</g>
</g>
</svg>
