<?xml version="1.0" encoding="UTF-8" standalone="no"?>
<!DOCTYPE svg PUBLIC "-//W3C//DTD SVG 1.1//EN"
 "http://www.w3.org/Graphics/SVG/1.1/DTD/svg11.dtd">
<!-- Generated by graphviz version 2.38.0 (20140413.2041)
 -->
<!-- Title: grafi Pages: 1 -->
<svg width="1404pt" height="174pt"
 viewBox="0.00 0.00 1404.00 174.40" xmlns="http://www.w3.org/2000/svg" xmlns:xlink="http://www.w3.org/1999/xlink">
<g id="graph0" class="graph" transform="scale(1 1) rotate(0) translate(4 170.396)">
<title>grafi</title>
<polygon fill="white" stroke="none" points="-4,4 -4,-170.396 1400,-170.396 1400,4 -4,4"/>
<text text-anchor="middle" x="698" y="-151.196" font-family="Times New Roman,serif" font-size="14.00">Hospital San Juan de Dios</text>
<g id="clust1" class="cluster"><title>cluster_1</title>
<polygon fill="#ff7f24" stroke="#ff7f24" points="8,-8 8,-135.396 739,-135.396 739,-8 8,-8"/>
<text text-anchor="middle" x="373.5" y="-120.196" font-family="Times New Roman,serif" font-size="14.00">Rayos X</text>
</g>
<g id="clust2" class="cluster"><title>cluster_2</title>
<polygon fill="#838b83" stroke="#838b83" points="597,-19.8997 597,-100.496 731,-100.496 731,-19.8997 597,-19.8997"/>
<text text-anchor="middle" x="664" y="-85.296" font-family="Times New Roman,serif" font-size="14.00">Paciente en Atencion</text>
</g>
<g id="clust3" class="cluster"><title>cluster_3</title>
<polygon fill="gray" stroke="gray" points="16,-16 16,-104.396 589,-104.396 589,-16 16,-16"/>
<text text-anchor="middle" x="302.5" y="-89.1956" font-family="Times New Roman,serif" font-size="14.00">En espera</text>
</g>
<g id="clust7" class="cluster"><title>cluster_7</title>
<polygon fill="#a2cd5a" stroke="#a2cd5a" points="1038,-8 1038,-135.396 1388,-135.396 1388,-8 1038,-8"/>
<text text-anchor="middle" x="1213" y="-120.196" font-family="Times New Roman,serif" font-size="14.00">Consulta 2</text>
</g>
<g id="clust8" class="cluster"><title>cluster_8</title>
<polygon fill="#838b83" stroke="#838b83" points="1246,-19.8997 1246,-100.496 1380,-100.496 1380,-19.8997 1246,-19.8997"/>
<text text-anchor="middle" x="1313" y="-85.296" font-family="Times New Roman,serif" font-size="14.00">Paciente en Atencion</text>
</g>
<g id="clust9" class="cluster"><title>cluster_9</title>
<polygon fill="gray" stroke="gray" points="1046,-16 1046,-104.396 1238,-104.396 1238,-16 1046,-16"/>
<text text-anchor="middle" x="1142" y="-89.1956" font-family="Times New Roman,serif" font-size="14.00">En espera</text>
</g>
<g id="clust4" class="cluster"><title>cluster_4</title>
<polygon fill="#eead0e" stroke="#eead0e" points="747,-8 747,-135.396 1030,-135.396 1030,-8 747,-8"/>
<text text-anchor="middle" x="888.5" y="-120.196" font-family="Times New Roman,serif" font-size="14.00">Consulta 1</text>
</g>
<g id="clust6" class="cluster"><title>cluster_6</title>
<polygon fill="gray" stroke="gray" points="897,-16 897,-104.396 1022,-104.396 1022,-16 897,-16"/>
<text text-anchor="middle" x="959.5" y="-89.1956" font-family="Times New Roman,serif" font-size="14.00">En espera</text>
</g>
<g id="clust5" class="cluster"><title>cluster_5</title>
<polygon fill="#838b83" stroke="#838b83" points="755,-19.8997 755,-100.496 889,-100.496 889,-19.8997 755,-19.8997"/>
<text text-anchor="middle" x="822" y="-85.296" font-family="Times New Roman,serif" font-size="14.00">Paciente en Atencion</text>
</g>
<!-- P1 -->
<g id="node1" class="node"><title>P1</title>
<ellipse fill="lightgrey" stroke="black" cx="664" cy="-48.6978" rx="20.5982" ry="20.5982"/>
<text text-anchor="middle" x="664" y="-44.9978" font-family="Times New Roman,serif" font-size="14.00">P1</text>
</g>
<!-- P3 -->
<g id="node2" class="node"><title>P3</title>
<ellipse fill="lightgrey" stroke="black" cx="560" cy="-48.6978" rx="20.5982" ry="20.5982"/>
<text text-anchor="middle" x="560" y="-44.9978" font-family="Times New Roman,serif" font-size="14.00">P3</text>
</g>
<!-- P6 -->
<g id="node3" class="node"><title>P6</title>
<ellipse fill="lightgrey" stroke="black" cx="500" cy="-48.6978" rx="20.5982" ry="20.5982"/>
<text text-anchor="middle" x="500" y="-44.9978" font-family="Times New Roman,serif" font-size="14.00">P6</text>
</g>
<!-- P8 -->
<g id="node4" class="node"><title>P8</title>
<ellipse fill="lightgrey" stroke="black" cx="440" cy="-48.6978" rx="20.5982" ry="20.5982"/>
<text text-anchor="middle" x="440" y="-44.9978" font-family="Times New Roman,serif" font-size="14.00">P8</text>
</g>
<!-- P9 -->
<g id="node5" class="node"><title>P9</title>
<ellipse fill="lightgrey" stroke="black" cx="380" cy="-48.6978" rx="20.5982" ry="20.5982"/>
<text text-anchor="middle" x="380" y="-44.9978" font-family="Times New Roman,serif" font-size="14.00">P9</text>
</g>
<!-- P10 -->
<g id="node6" class="node"><title>P10</title>
<ellipse fill="lightgrey" stroke="black" cx="317" cy="-48.6978" rx="24.8972" ry="24.8972"/>
<text text-anchor="middle" x="317" y="-44.9978" font-family="Times New Roman,serif" font-size="14.00">P10</text>
</g>
<!-- P12 -->
<g id="node7" class="node"><title>P12</title>
<ellipse fill="lightgrey" stroke="black" cx="250" cy="-48.6978" rx="24.8972" ry="24.8972"/>
<text text-anchor="middle" x="250" y="-44.9978" font-family="Times New Roman,serif" font-size="14.00">P12</text>
</g>
<!-- P14 -->
<g id="node8" class="node"><title>P14</title>
<ellipse fill="lightgrey" stroke="black" cx="183" cy="-48.6978" rx="24.8972" ry="24.8972"/>
<text text-anchor="middle" x="183" y="-44.9978" font-family="Times New Roman,serif" font-size="14.00">P14</text>
</g>
<!-- P16 -->
<g id="node9" class="node"><title>P16</title>
<ellipse fill="lightgrey" stroke="black" cx="116" cy="-48.6978" rx="24.8972" ry="24.8972"/>
<text text-anchor="middle" x="116" y="-44.9978" font-family="Times New Roman,serif" font-size="14.00">P16</text>
</g>
<!-- P17 -->
<g id="node10" class="node"><title>P17</title>
<ellipse fill="lightgrey" stroke="black" cx="49" cy="-48.6978" rx="24.8972" ry="24.8972"/>
<text text-anchor="middle" x="49" y="-44.9978" font-family="Times New Roman,serif" font-size="14.00">P17</text>
</g>
<!-- P2 -->
<g id="node11" class="node"><title>P2</title>
<ellipse fill="lightgrey" stroke="black" cx="822" cy="-48.6978" rx="20.5982" ry="20.5982"/>
<text text-anchor="middle" x="822" y="-44.9978" font-family="Times New Roman,serif" font-size="14.00">P2</text>
</g>
<!-- P5 -->
<g id="node12" class="node"><title>P5</title>
<ellipse fill="lightgrey" stroke="black" cx="993" cy="-48.6978" rx="20.5982" ry="20.5982"/>
<text text-anchor="middle" x="993" y="-44.9978" font-family="Times New Roman,serif" font-size="14.00">P5</text>
</g>
<!-- P15 -->
<g id="node13" class="node"><title>P15</title>
<ellipse fill="lightgrey" stroke="black" cx="930" cy="-48.6978" rx="24.8972" ry="24.8972"/>
<text text-anchor="middle" x="930" y="-44.9978" font-family="Times New Roman,serif" font-size="14.00">P15</text>
</g>
<!-- P4 -->
<g id="node14" class="node"><title>P4</title>
<ellipse fill="lightgrey" stroke="black" cx="1313" cy="-48.6978" rx="20.5982" ry="20.5982"/>
<text text-anchor="middle" x="1313" y="-44.9978" font-family="Times New Roman,serif" font-size="14.00">P4</text>
</g>
<!-- P7 -->
<g id="node15" class="node"><title>P7</title>
<ellipse fill="lightgrey" stroke="black" cx="1209" cy="-48.6978" rx="20.5982" ry="20.5982"/>
<text text-anchor="middle" x="1209" y="-44.9978" font-family="Times New Roman,serif" font-size="14.00">P7</text>
</g>
<!-- P11 -->
<g id="node16" class="node"><title>P11</title>
<ellipse fill="lightgrey" stroke="black" cx="1146" cy="-48.6978" rx="24.8972" ry="24.8972"/>
<text text-anchor="middle" x="1146" y="-44.9978" font-family="Times New Roman,serif" font-size="14.00">P11</text>
</g>
<!-- P13 -->
<g id="node17" class="node"><title>P13</title>
<ellipse fill="lightgrey" stroke="black" cx="1079" cy="-48.6978" rx="24.8972" ry="24.8972"/>
<text text-anchor="middle" x="1079" y="-44.9978" font-family="Times New Roman,serif" font-size="14.00">P13</text>
</g>
</g>
</svg>
