<?xml version="1.0" encoding="UTF-8" standalone="no"?>
<!DOCTYPE svg PUBLIC "-//W3C//DTD SVG 1.1//EN"
 "http://www.w3.org/Graphics/SVG/1.1/DTD/svg11.dtd">
<!-- Generated by graphviz version 2.38.0 (20140413.2041)
 -->
<!-- Title: grafi Pages: 1 -->
<svg width="1192pt" height="183pt"
 viewBox="0.00 0.00 1192.00 183.00" xmlns="http://www.w3.org/2000/svg" xmlns:xlink="http://www.w3.org/1999/xlink">
<g id="graph0" class="graph" transform="scale(1 1) rotate(0) translate(4 179)">
<title>grafi</title>
<polygon fill="white" stroke="none" points="-4,4 -4,-179 1188,-179 1188,4 -4,4"/>
<text text-anchor="middle" x="592" y="-159.8" font-family="Times New Roman,serif" font-size="14.00">Hospital San Juan de Dios</text>
<g id="clust7" class="cluster"><title>cluster_8</title>
<polygon fill="#a2cd5a" stroke="#a2cd5a" points="944,-8 944,-144 1176,-144 1176,-8 944,-8"/>
<text text-anchor="middle" x="1060" y="-128.8" font-family="Times New Roman,serif" font-size="14.00">Consulta 2</text>
</g>
<g id="clust8" class="cluster"><title>cluster_9</title>
<polygon fill="#838b83" stroke="#838b83" points="1034,-16 1034,-113 1168,-113 1168,-16 1034,-16"/>
<text text-anchor="middle" x="1101" y="-97.8" font-family="Times New Roman,serif" font-size="14.00">Paciente en Atencion</text>
</g>
<g id="clust9" class="cluster"><title>cluster_10</title>
<polygon fill="gray" stroke="gray" points="952,-16 952,-113 1026,-113 1026,-16 952,-16"/>
<text text-anchor="middle" x="989" y="-97.8" font-family="Times New Roman,serif" font-size="14.00">En espera</text>
</g>
<g id="clust4" class="cluster"><title>cluster_4</title>
<polygon fill="#eead0e" stroke="#eead0e" points="704,-8 704,-144 936,-144 936,-8 704,-8"/>
<text text-anchor="middle" x="820" y="-128.8" font-family="Times New Roman,serif" font-size="14.00">Consulta 1</text>
</g>
<g id="clust6" class="cluster"><title>cluster_6</title>
<polygon fill="gray" stroke="gray" points="854,-16 854,-113 928,-113 928,-16 854,-16"/>
<text text-anchor="middle" x="891" y="-97.8" font-family="Times New Roman,serif" font-size="14.00">En espera</text>
</g>
<g id="clust5" class="cluster"><title>cluster_5</title>
<polygon fill="#838b83" stroke="#838b83" points="712,-16 712,-113 846,-113 846,-16 712,-16"/>
<text text-anchor="middle" x="779" y="-97.8" font-family="Times New Roman,serif" font-size="14.00">Paciente en Atencion</text>
</g>
<g id="clust1" class="cluster"><title>cluster_1</title>
<polygon fill="#ff7f24" stroke="#ff7f24" points="8,-8 8,-144 696,-144 696,-8 8,-8"/>
<text text-anchor="middle" x="352" y="-128.8" font-family="Times New Roman,serif" font-size="14.00">Rayos X</text>
</g>
<g id="clust3" class="cluster"><title>cluster_3</title>
<polygon fill="gray" stroke="gray" points="158,-16 158,-113 688,-113 688,-16 158,-16"/>
<text text-anchor="middle" x="423" y="-97.8" font-family="Times New Roman,serif" font-size="14.00">En espera</text>
</g>
<g id="clust2" class="cluster"><title>cluster_2</title>
<polygon fill="#838b83" stroke="#838b83" points="16,-16 16,-113 150,-113 150,-16 16,-16"/>
<text text-anchor="middle" x="83" y="-97.8" font-family="Times New Roman,serif" font-size="14.00">Paciente en Atencion</text>
</g>
<!-- P6 -->
<g id="node1" class="node"><title>P6</title>
<ellipse fill="lightgrey" stroke="black" cx="83" cy="-53" rx="29" ry="29"/>
<text text-anchor="middle" x="83" y="-49.3" font-family="Times New Roman,serif" font-size="14.00">P6</text>
</g>
<!-- P8 -->
<g id="node2" class="node"><title>P8</title>
<ellipse fill="lightgrey" stroke="black" cx="651" cy="-53" rx="29" ry="29"/>
<text text-anchor="middle" x="651" y="-49.3" font-family="Times New Roman,serif" font-size="14.00">P8</text>
</g>
<!-- P9 -->
<g id="node3" class="node"><title>P9</title>
<ellipse fill="lightgrey" stroke="black" cx="575" cy="-53" rx="29" ry="29"/>
<text text-anchor="middle" x="575" y="-49.3" font-family="Times New Roman,serif" font-size="14.00">P9</text>
</g>
<!-- P10 -->
<g id="node4" class="node"><title>P10</title>
<ellipse fill="lightgrey" stroke="black" cx="499" cy="-53" rx="29" ry="29"/>
<text text-anchor="middle" x="499" y="-49.3" font-family="Times New Roman,serif" font-size="14.00">P10</text>
</g>
<!-- P12 -->
<g id="node5" class="node"><title>P12</title>
<ellipse fill="lightgrey" stroke="black" cx="423" cy="-53" rx="29" ry="29"/>
<text text-anchor="middle" x="423" y="-49.3" font-family="Times New Roman,serif" font-size="14.00">P12</text>
</g>
<!-- P14 -->
<g id="node6" class="node"><title>P14</title>
<ellipse fill="lightgrey" stroke="black" cx="347" cy="-53" rx="29" ry="29"/>
<text text-anchor="middle" x="347" y="-49.3" font-family="Times New Roman,serif" font-size="14.00">P14</text>
</g>
<!-- P16 -->
<g id="node7" class="node"><title>P16</title>
<ellipse fill="lightgrey" stroke="black" cx="271" cy="-53" rx="29" ry="29"/>
<text text-anchor="middle" x="271" y="-49.3" font-family="Times New Roman,serif" font-size="14.00">P16</text>
</g>
<!-- P17 -->
<g id="node8" class="node"><title>P17</title>
<ellipse fill="lightgrey" stroke="black" cx="195" cy="-53" rx="29" ry="29"/>
<text text-anchor="middle" x="195" y="-49.3" font-family="Times New Roman,serif" font-size="14.00">P17</text>
</g>
<!-- P15 -->
<g id="node9" class="node"><title>P15</title>
<ellipse fill="lightgrey" stroke="black" cx="779" cy="-53" rx="29" ry="29"/>
<text text-anchor="middle" x="779" y="-49.3" font-family="Times New Roman,serif" font-size="14.00">P15</text>
</g>
<!-- inv7 -->
<g id="node10" class="node"><title>inv7</title>
<polygon fill="lightgrey" stroke="none" points="920,-82 862,-82 862,-24 920,-24 920,-82"/>
</g>
<!-- P11 -->
<g id="node11" class="node"><title>P11</title>
<ellipse fill="lightgrey" stroke="black" cx="1101" cy="-53" rx="29" ry="29"/>
<text text-anchor="middle" x="1101" y="-49.3" font-family="Times New Roman,serif" font-size="14.00">P11</text>
</g>
<!-- P13 -->
<g id="node12" class="node"><title>P13</title>
<ellipse fill="lightgrey" stroke="black" cx="989" cy="-53" rx="29" ry="29"/>
<text text-anchor="middle" x="989" y="-49.3" font-family="Times New Roman,serif" font-size="14.00">P13</text>
</g>
</g>
</svg>
