<?xml version="1.0" encoding="UTF-8" standalone="no"?>
<!DOCTYPE svg PUBLIC "-//W3C//DTD SVG 1.1//EN"
 "http://www.w3.org/Graphics/SVG/1.1/DTD/svg11.dtd">
<!-- Generated by graphviz version 2.38.0 (20140413.2041)
 -->
<!-- Title: grafi Pages: 1 -->
<svg width="736pt" height="183pt"
 viewBox="0.00 0.00 736.00 183.00" xmlns="http://www.w3.org/2000/svg" xmlns:xlink="http://www.w3.org/1999/xlink">
<g id="graph0" class="graph" transform="scale(1 1) rotate(0) translate(4 179)">
<title>grafi</title>
<polygon fill="white" stroke="none" points="-4,4 -4,-179 732,-179 732,4 -4,4"/>
<text text-anchor="middle" x="364" y="-159.8" font-family="Times New Roman,serif" font-size="14.00">Hospital San Juan de Dios</text>
<g id="clust7" class="cluster"><title>cluster_10</title>
<polygon fill="#a2cd5a" stroke="#a2cd5a" points="488,-8 488,-144 720,-144 720,-8 488,-8"/>
<text text-anchor="middle" x="604" y="-128.8" font-family="Times New Roman,serif" font-size="14.00">Consulta 2</text>
</g>
<g id="clust8" class="cluster"><title>cluster_11</title>
<polygon fill="#838b83" stroke="#838b83" points="578,-16 578,-113 712,-113 712,-16 578,-16"/>
<text text-anchor="middle" x="645" y="-97.8" font-family="Times New Roman,serif" font-size="14.00">Paciente en Atencion</text>
</g>
<g id="clust9" class="cluster"><title>cluster_13</title>
<polygon fill="gray" stroke="gray" points="496,-16 496,-113 570,-113 570,-16 496,-16"/>
<text text-anchor="middle" x="533" y="-97.8" font-family="Times New Roman,serif" font-size="14.00">En espera</text>
</g>
<g id="clust4" class="cluster"><title>cluster_5</title>
<polygon fill="#eead0e" stroke="#eead0e" points="248,-8 248,-144 480,-144 480,-8 248,-8"/>
<text text-anchor="middle" x="364" y="-128.8" font-family="Times New Roman,serif" font-size="14.00">Consulta 1</text>
</g>
<g id="clust6" class="cluster"><title>cluster_8</title>
<polygon fill="gray" stroke="gray" points="398,-16 398,-113 472,-113 472,-16 398,-16"/>
<text text-anchor="middle" x="435" y="-97.8" font-family="Times New Roman,serif" font-size="14.00">En espera</text>
</g>
<g id="clust5" class="cluster"><title>cluster_6</title>
<polygon fill="#838b83" stroke="#838b83" points="256,-16 256,-113 390,-113 390,-16 256,-16"/>
<text text-anchor="middle" x="323" y="-97.8" font-family="Times New Roman,serif" font-size="14.00">Paciente en Atencion</text>
</g>
<g id="clust1" class="cluster"><title>cluster_1</title>
<polygon fill="#ff7f24" stroke="#ff7f24" points="8,-8 8,-144 240,-144 240,-8 8,-8"/>
<text text-anchor="middle" x="124" y="-128.8" font-family="Times New Roman,serif" font-size="14.00">Rayos X</text>
</g>
<g id="clust3" class="cluster"><title>cluster_3</title>
<polygon fill="gray" stroke="gray" points="158,-16 158,-113 232,-113 232,-16 158,-16"/>
<text text-anchor="middle" x="195" y="-97.8" font-family="Times New Roman,serif" font-size="14.00">En espera</text>
</g>
<g id="clust2" class="cluster"><title>cluster_2</title>
<polygon fill="#838b83" stroke="#838b83" points="16,-16 16,-113 150,-113 150,-16 16,-16"/>
<text text-anchor="middle" x="83" y="-97.8" font-family="Times New Roman,serif" font-size="14.00">Paciente en Atencion</text>
</g>
<!-- P17 -->
<g id="node1" class="node"><title>P17</title>
<ellipse fill="lightgrey" stroke="black" cx="83" cy="-53" rx="29" ry="29"/>
<text text-anchor="middle" x="83" y="-49.3" font-family="Times New Roman,serif" font-size="14.00">P17</text>
</g>
<!-- inv4 -->
<g id="node2" class="node"><title>inv4</title>
<polygon fill="lightgrey" stroke="none" points="224,-82 166,-82 166,-24 224,-24 224,-82"/>
</g>
<!-- inv7 -->
<g id="node3" class="node"><title>inv7</title>
<polygon fill="lightgrey" stroke="none" points="352,-82 294,-82 294,-24 352,-24 352,-82"/>
</g>
<!-- inv9 -->
<g id="node4" class="node"><title>inv9</title>
<polygon fill="lightgrey" stroke="none" points="464,-82 406,-82 406,-24 464,-24 464,-82"/>
</g>
<!-- inv12 -->
<g id="node5" class="node"><title>inv12</title>
<polygon fill="lightgrey" stroke="none" points="674,-82 616,-82 616,-24 674,-24 674,-82"/>
</g>
<!-- inv14 -->
<g id="node6" class="node"><title>inv14</title>
<polygon fill="lightgrey" stroke="none" points="562,-82 504,-82 504,-24 562,-24 562,-82"/>
</g>
</g>
</svg>
