<?xml version="1.0" encoding="UTF-8" standalone="no"?>
<!DOCTYPE svg PUBLIC "-//W3C//DTD SVG 1.1//EN"
 "http://www.w3.org/Graphics/SVG/1.1/DTD/svg11.dtd">
<!-- Generated by graphviz version 2.38.0 (20140413.2041)
 -->
<!-- Title: grafi Pages: 1 -->
<svg width="856pt" height="174pt"
 viewBox="0.00 0.00 856.00 174.40" xmlns="http://www.w3.org/2000/svg" xmlns:xlink="http://www.w3.org/1999/xlink">
<g id="graph0" class="graph" transform="scale(1 1) rotate(0) translate(4 170.396)">
<title>grafi</title>
<polygon fill="white" stroke="none" points="-4,4 -4,-170.396 852,-170.396 852,4 -4,4"/>
<text text-anchor="middle" x="424" y="-151.196" font-family="Times New Roman,serif" font-size="14.00">Hospital San Juan de Dios</text>
<g id="clust1" class="cluster"><title>cluster_1</title>
<polygon fill="#ff7f24" stroke="#ff7f24" points="8,-8 8,-135.396 366,-135.396 366,-8 8,-8"/>
<text text-anchor="middle" x="187" y="-120.196" font-family="Times New Roman,serif" font-size="14.00">Rayos X</text>
</g>
<g id="clust2" class="cluster"><title>cluster_2</title>
<polygon fill="#838b83" stroke="#838b83" points="224,-16 224,-104.396 358,-104.396 358,-16 224,-16"/>
<text text-anchor="middle" x="291" y="-89.1956" font-family="Times New Roman,serif" font-size="14.00">Paciente en Atencion</text>
</g>
<g id="clust3" class="cluster"><title>cluster_3</title>
<polygon fill="gray" stroke="gray" points="16,-16 16,-104.396 216,-104.396 216,-16 16,-16"/>
<text text-anchor="middle" x="116" y="-89.1956" font-family="Times New Roman,serif" font-size="14.00">En espera</text>
</g>
<g id="clust7" class="cluster"><title>cluster_9</title>
<polygon fill="#a2cd5a" stroke="#a2cd5a" points="611,-14.6978 611,-128.698 840,-128.698 840,-14.6978 611,-14.6978"/>
<text text-anchor="middle" x="725.5" y="-113.498" font-family="Times New Roman,serif" font-size="14.00">Consulta 2</text>
</g>
<g id="clust8" class="cluster"><title>cluster_10</title>
<polygon fill="#838b83" stroke="#838b83" points="698,-22.6978 698,-97.6978 832,-97.6978 832,-22.6978 698,-22.6978"/>
<text text-anchor="middle" x="765" y="-82.4978" font-family="Times New Roman,serif" font-size="14.00">Paciente en Atencion</text>
</g>
<g id="clust9" class="cluster"><title>cluster_12</title>
<polygon fill="gray" stroke="gray" points="619,-22.6978 619,-97.6978 690,-97.6978 690,-22.6978 619,-22.6978"/>
<text text-anchor="middle" x="654.5" y="-82.4978" font-family="Times New Roman,serif" font-size="14.00">En espera</text>
</g>
<g id="clust4" class="cluster"><title>cluster_4</title>
<polygon fill="#eead0e" stroke="#eead0e" points="374,-14.6978 374,-128.698 603,-128.698 603,-14.6978 374,-14.6978"/>
<text text-anchor="middle" x="488.5" y="-113.498" font-family="Times New Roman,serif" font-size="14.00">Consulta 1</text>
</g>
<g id="clust6" class="cluster"><title>cluster_7</title>
<polygon fill="gray" stroke="gray" points="524,-22.6978 524,-97.6978 595,-97.6978 595,-22.6978 524,-22.6978"/>
<text text-anchor="middle" x="559.5" y="-82.4978" font-family="Times New Roman,serif" font-size="14.00">En espera</text>
</g>
<g id="clust5" class="cluster"><title>cluster_5</title>
<polygon fill="#838b83" stroke="#838b83" points="382,-22.6978 382,-97.6978 516,-97.6978 516,-22.6978 382,-22.6978"/>
<text text-anchor="middle" x="449" y="-82.4978" font-family="Times New Roman,serif" font-size="14.00">Paciente en Atencion</text>
</g>
<!-- P12 -->
<g id="node1" class="node"><title>P12</title>
<ellipse fill="lightgrey" stroke="black" cx="291" cy="-48.6978" rx="24.8972" ry="24.8972"/>
<text text-anchor="middle" x="291" y="-44.9978" font-family="Times New Roman,serif" font-size="14.00">P12</text>
</g>
<!-- P14 -->
<g id="node2" class="node"><title>P14</title>
<ellipse fill="lightgrey" stroke="black" cx="183" cy="-48.6978" rx="24.8972" ry="24.8972"/>
<text text-anchor="middle" x="183" y="-44.9978" font-family="Times New Roman,serif" font-size="14.00">P14</text>
</g>
<!-- P16 -->
<g id="node3" class="node"><title>P16</title>
<ellipse fill="lightgrey" stroke="black" cx="116" cy="-48.6978" rx="24.8972" ry="24.8972"/>
<text text-anchor="middle" x="116" y="-44.9978" font-family="Times New Roman,serif" font-size="14.00">P16</text>
</g>
<!-- P17 -->
<g id="node4" class="node"><title>P17</title>
<ellipse fill="lightgrey" stroke="black" cx="49" cy="-48.6978" rx="24.8972" ry="24.8972"/>
<text text-anchor="middle" x="49" y="-44.9978" font-family="Times New Roman,serif" font-size="14.00">P17</text>
</g>
<!-- inv6 -->
<g id="node5" class="node"><title>inv6</title>
<polygon fill="lightgrey" stroke="none" points="476,-66.6978 422,-66.6978 422,-30.6978 476,-30.6978 476,-66.6978"/>
</g>
<!-- inv8 -->
<g id="node6" class="node"><title>inv8</title>
<polygon fill="lightgrey" stroke="none" points="586,-66.6978 532,-66.6978 532,-30.6978 586,-30.6978 586,-66.6978"/>
</g>
<!-- inv11 -->
<g id="node7" class="node"><title>inv11</title>
<polygon fill="lightgrey" stroke="none" points="792,-66.6978 738,-66.6978 738,-30.6978 792,-30.6978 792,-66.6978"/>
</g>
<!-- inv13 -->
<g id="node8" class="node"><title>inv13</title>
<polygon fill="lightgrey" stroke="none" points="681,-66.6978 627,-66.6978 627,-30.6978 681,-30.6978 681,-66.6978"/>
</g>
</g>
</svg>
