<?xml version="1.0" encoding="UTF-8" standalone="no"?>
<!DOCTYPE svg PUBLIC "-//W3C//DTD SVG 1.1//EN"
 "http://www.w3.org/Graphics/SVG/1.1/DTD/svg11.dtd">
<!-- Generated by graphviz version 2.38.0 (20140413.2041)
 -->
<!-- Title: grafi Pages: 1 -->
<svg width="1049pt" height="174pt"
 viewBox="0.00 0.00 1049.00 174.40" xmlns="http://www.w3.org/2000/svg" xmlns:xlink="http://www.w3.org/1999/xlink">
<g id="graph0" class="graph" transform="scale(1 1) rotate(0) translate(4 170.396)">
<title>grafi</title>
<polygon fill="white" stroke="none" points="-4,4 -4,-170.396 1045,-170.396 1045,4 -4,4"/>
<text text-anchor="middle" x="520.5" y="-151.196" font-family="Times New Roman,serif" font-size="14.00">Hospital San Juan de Dios</text>
<g id="clust1" class="cluster"><title>cluster_1</title>
<polygon fill="#ff7f24" stroke="#ff7f24" points="8,-8 8,-135.396 559,-135.396 559,-8 8,-8"/>
<text text-anchor="middle" x="283.5" y="-120.196" font-family="Times New Roman,serif" font-size="14.00">Rayos X</text>
</g>
<g id="clust2" class="cluster"><title>cluster_2</title>
<polygon fill="#838b83" stroke="#838b83" points="417,-19.8997 417,-100.496 551,-100.496 551,-19.8997 417,-19.8997"/>
<text text-anchor="middle" x="484" y="-85.296" font-family="Times New Roman,serif" font-size="14.00">Paciente en Atencion</text>
</g>
<g id="clust3" class="cluster"><title>cluster_3</title>
<polygon fill="gray" stroke="gray" points="16,-16 16,-104.396 409,-104.396 409,-16 16,-16"/>
<text text-anchor="middle" x="212.5" y="-89.1956" font-family="Times New Roman,serif" font-size="14.00">En espera</text>
</g>
<g id="clust7" class="cluster"><title>cluster_9</title>
<polygon fill="#a2cd5a" stroke="#a2cd5a" points="804,-8 804,-135.396 1033,-135.396 1033,-8 804,-8"/>
<text text-anchor="middle" x="918.5" y="-120.196" font-family="Times New Roman,serif" font-size="14.00">Consulta 2</text>
</g>
<g id="clust8" class="cluster"><title>cluster_10</title>
<polygon fill="#838b83" stroke="#838b83" points="891,-16 891,-104.396 1025,-104.396 1025,-16 891,-16"/>
<text text-anchor="middle" x="958" y="-89.1956" font-family="Times New Roman,serif" font-size="14.00">Paciente en Atencion</text>
</g>
<g id="clust9" class="cluster"><title>cluster_11</title>
<polygon fill="gray" stroke="gray" points="812,-22.6978 812,-97.6978 883,-97.6978 883,-22.6978 812,-22.6978"/>
<text text-anchor="middle" x="847.5" y="-82.4978" font-family="Times New Roman,serif" font-size="14.00">En espera</text>
</g>
<g id="clust4" class="cluster"><title>cluster_4</title>
<polygon fill="#eead0e" stroke="#eead0e" points="567,-14.6978 567,-128.698 796,-128.698 796,-14.6978 567,-14.6978"/>
<text text-anchor="middle" x="681.5" y="-113.498" font-family="Times New Roman,serif" font-size="14.00">Consulta 1</text>
</g>
<g id="clust6" class="cluster"><title>cluster_7</title>
<polygon fill="gray" stroke="gray" points="717,-22.6978 717,-97.6978 788,-97.6978 788,-22.6978 717,-22.6978"/>
<text text-anchor="middle" x="752.5" y="-82.4978" font-family="Times New Roman,serif" font-size="14.00">En espera</text>
</g>
<g id="clust5" class="cluster"><title>cluster_5</title>
<polygon fill="#838b83" stroke="#838b83" points="575,-22.6978 575,-97.6978 709,-97.6978 709,-22.6978 575,-22.6978"/>
<text text-anchor="middle" x="642" y="-82.4978" font-family="Times New Roman,serif" font-size="14.00">Paciente en Atencion</text>
</g>
<!-- P8 -->
<g id="node1" class="node"><title>P8</title>
<ellipse fill="lightgrey" stroke="black" cx="484" cy="-48.6978" rx="20.5982" ry="20.5982"/>
<text text-anchor="middle" x="484" y="-44.9978" font-family="Times New Roman,serif" font-size="14.00">P8</text>
</g>
<!-- P9 -->
<g id="node2" class="node"><title>P9</title>
<ellipse fill="lightgrey" stroke="black" cx="380" cy="-48.6978" rx="20.5982" ry="20.5982"/>
<text text-anchor="middle" x="380" y="-44.9978" font-family="Times New Roman,serif" font-size="14.00">P9</text>
</g>
<!-- P10 -->
<g id="node3" class="node"><title>P10</title>
<ellipse fill="lightgrey" stroke="black" cx="317" cy="-48.6978" rx="24.8972" ry="24.8972"/>
<text text-anchor="middle" x="317" y="-44.9978" font-family="Times New Roman,serif" font-size="14.00">P10</text>
</g>
<!-- P12 -->
<g id="node4" class="node"><title>P12</title>
<ellipse fill="lightgrey" stroke="black" cx="250" cy="-48.6978" rx="24.8972" ry="24.8972"/>
<text text-anchor="middle" x="250" y="-44.9978" font-family="Times New Roman,serif" font-size="14.00">P12</text>
</g>
<!-- P14 -->
<g id="node5" class="node"><title>P14</title>
<ellipse fill="lightgrey" stroke="black" cx="183" cy="-48.6978" rx="24.8972" ry="24.8972"/>
<text text-anchor="middle" x="183" y="-44.9978" font-family="Times New Roman,serif" font-size="14.00">P14</text>
</g>
<!-- P16 -->
<g id="node6" class="node"><title>P16</title>
<ellipse fill="lightgrey" stroke="black" cx="116" cy="-48.6978" rx="24.8972" ry="24.8972"/>
<text text-anchor="middle" x="116" y="-44.9978" font-family="Times New Roman,serif" font-size="14.00">P16</text>
</g>
<!-- P17 -->
<g id="node7" class="node"><title>P17</title>
<ellipse fill="lightgrey" stroke="black" cx="49" cy="-48.6978" rx="24.8972" ry="24.8972"/>
<text text-anchor="middle" x="49" y="-44.9978" font-family="Times New Roman,serif" font-size="14.00">P17</text>
</g>
<!-- inv6 -->
<g id="node8" class="node"><title>inv6</title>
<polygon fill="lightgrey" stroke="none" points="669,-66.6978 615,-66.6978 615,-30.6978 669,-30.6978 669,-66.6978"/>
</g>
<!-- inv8 -->
<g id="node9" class="node"><title>inv8</title>
<polygon fill="lightgrey" stroke="none" points="779,-66.6978 725,-66.6978 725,-30.6978 779,-30.6978 779,-66.6978"/>
</g>
<!-- P13 -->
<g id="node10" class="node"><title>P13</title>
<ellipse fill="lightgrey" stroke="black" cx="958" cy="-48.6978" rx="24.8972" ry="24.8972"/>
<text text-anchor="middle" x="958" y="-44.9978" font-family="Times New Roman,serif" font-size="14.00">P13</text>
</g>
<!-- inv12 -->
<g id="node11" class="node"><title>inv12</title>
<polygon fill="lightgrey" stroke="none" points="874,-66.6978 820,-66.6978 820,-30.6978 874,-30.6978 874,-66.6978"/>
</g>
</g>
</svg>
