<?xml version="1.0" encoding="UTF-8" standalone="no"?>
<!DOCTYPE svg PUBLIC "-//W3C//DTD SVG 1.1//EN"
 "http://www.w3.org/Graphics/SVG/1.1/DTD/svg11.dtd">
<!-- Generated by graphviz version 2.38.0 (20140413.2041)
 -->
<!-- Title: grafi Pages: 1 -->
<svg width="1040pt" height="183pt"
 viewBox="0.00 0.00 1040.00 183.00" xmlns="http://www.w3.org/2000/svg" xmlns:xlink="http://www.w3.org/1999/xlink">
<g id="graph0" class="graph" transform="scale(1 1) rotate(0) translate(4 179)">
<title>grafi</title>
<polygon fill="white" stroke="none" points="-4,4 -4,-179 1036,-179 1036,4 -4,4"/>
<text text-anchor="middle" x="516" y="-159.8" font-family="Times New Roman,serif" font-size="14.00">Hospital San Juan de Dios</text>
<g id="clust7" class="cluster"><title>cluster_9</title>
<polygon fill="#a2cd5a" stroke="#a2cd5a" points="792,-8 792,-144 1024,-144 1024,-8 792,-8"/>
<text text-anchor="middle" x="908" y="-128.8" font-family="Times New Roman,serif" font-size="14.00">Consulta 2</text>
</g>
<g id="clust8" class="cluster"><title>cluster_10</title>
<polygon fill="#838b83" stroke="#838b83" points="882,-16 882,-113 1016,-113 1016,-16 882,-16"/>
<text text-anchor="middle" x="949" y="-97.8" font-family="Times New Roman,serif" font-size="14.00">Paciente en Atencion</text>
</g>
<g id="clust9" class="cluster"><title>cluster_12</title>
<polygon fill="gray" stroke="gray" points="800,-16 800,-113 874,-113 874,-16 800,-16"/>
<text text-anchor="middle" x="837" y="-97.8" font-family="Times New Roman,serif" font-size="14.00">En espera</text>
</g>
<g id="clust1" class="cluster"><title>cluster_1</title>
<polygon fill="#ff7f24" stroke="#ff7f24" points="8,-8 8,-144 544,-144 544,-8 8,-8"/>
<text text-anchor="middle" x="276" y="-128.8" font-family="Times New Roman,serif" font-size="14.00">Rayos X</text>
</g>
<g id="clust2" class="cluster"><title>cluster_2</title>
<polygon fill="#838b83" stroke="#838b83" points="402,-16 402,-113 536,-113 536,-16 402,-16"/>
<text text-anchor="middle" x="469" y="-97.8" font-family="Times New Roman,serif" font-size="14.00">Paciente en Atencion</text>
</g>
<g id="clust3" class="cluster"><title>cluster_3</title>
<polygon fill="gray" stroke="gray" points="16,-16 16,-113 394,-113 394,-16 16,-16"/>
<text text-anchor="middle" x="205" y="-97.8" font-family="Times New Roman,serif" font-size="14.00">En espera</text>
</g>
<g id="clust4" class="cluster"><title>cluster_4</title>
<polygon fill="#eead0e" stroke="#eead0e" points="552,-8 552,-144 784,-144 784,-8 552,-8"/>
<text text-anchor="middle" x="668" y="-128.8" font-family="Times New Roman,serif" font-size="14.00">Consulta 1</text>
</g>
<g id="clust6" class="cluster"><title>cluster_7</title>
<polygon fill="gray" stroke="gray" points="702,-16 702,-113 776,-113 776,-16 702,-16"/>
<text text-anchor="middle" x="739" y="-97.8" font-family="Times New Roman,serif" font-size="14.00">En espera</text>
</g>
<g id="clust5" class="cluster"><title>cluster_5</title>
<polygon fill="#838b83" stroke="#838b83" points="560,-16 560,-113 694,-113 694,-16 560,-16"/>
<text text-anchor="middle" x="627" y="-97.8" font-family="Times New Roman,serif" font-size="14.00">Paciente en Atencion</text>
</g>
<!-- P9 -->
<g id="node1" class="node"><title>P9</title>
<ellipse fill="lightgrey" stroke="black" cx="469" cy="-53" rx="29" ry="29"/>
<text text-anchor="middle" x="469" y="-49.3" font-family="Times New Roman,serif" font-size="14.00">P9</text>
</g>
<!-- P10 -->
<g id="node2" class="node"><title>P10</title>
<ellipse fill="lightgrey" stroke="black" cx="357" cy="-53" rx="29" ry="29"/>
<text text-anchor="middle" x="357" y="-49.3" font-family="Times New Roman,serif" font-size="14.00">P10</text>
</g>
<!-- P12 -->
<g id="node3" class="node"><title>P12</title>
<ellipse fill="lightgrey" stroke="black" cx="281" cy="-53" rx="29" ry="29"/>
<text text-anchor="middle" x="281" y="-49.3" font-family="Times New Roman,serif" font-size="14.00">P12</text>
</g>
<!-- P14 -->
<g id="node4" class="node"><title>P14</title>
<ellipse fill="lightgrey" stroke="black" cx="205" cy="-53" rx="29" ry="29"/>
<text text-anchor="middle" x="205" y="-49.3" font-family="Times New Roman,serif" font-size="14.00">P14</text>
</g>
<!-- P16 -->
<g id="node5" class="node"><title>P16</title>
<ellipse fill="lightgrey" stroke="black" cx="129" cy="-53" rx="29" ry="29"/>
<text text-anchor="middle" x="129" y="-49.3" font-family="Times New Roman,serif" font-size="14.00">P16</text>
</g>
<!-- P17 -->
<g id="node6" class="node"><title>P17</title>
<ellipse fill="lightgrey" stroke="black" cx="53" cy="-53" rx="29" ry="29"/>
<text text-anchor="middle" x="53" y="-49.3" font-family="Times New Roman,serif" font-size="14.00">P17</text>
</g>
<!-- inv6 -->
<g id="node7" class="node"><title>inv6</title>
<polygon fill="lightgrey" stroke="none" points="656,-82 598,-82 598,-24 656,-24 656,-82"/>
</g>
<!-- inv8 -->
<g id="node8" class="node"><title>inv8</title>
<polygon fill="lightgrey" stroke="none" points="768,-82 710,-82 710,-24 768,-24 768,-82"/>
</g>
<!-- inv11 -->
<g id="node9" class="node"><title>inv11</title>
<polygon fill="lightgrey" stroke="none" points="978,-82 920,-82 920,-24 978,-24 978,-82"/>
</g>
<!-- inv13 -->
<g id="node10" class="node"><title>inv13</title>
<polygon fill="lightgrey" stroke="none" points="866,-82 808,-82 808,-24 866,-24 866,-82"/>
</g>
</g>
</svg>
