<?xml version="1.0" encoding="UTF-8" standalone="no"?>
<!DOCTYPE svg PUBLIC "-//W3C//DTD SVG 1.1//EN"
 "http://www.w3.org/Graphics/SVG/1.1/DTD/svg11.dtd">
<!-- Generated by graphviz version 2.38.0 (20140413.2041)
 -->
<!-- Title: grafi Pages: 1 -->
<svg width="888pt" height="183pt"
 viewBox="0.00 0.00 888.00 183.00" xmlns="http://www.w3.org/2000/svg" xmlns:xlink="http://www.w3.org/1999/xlink">
<g id="graph0" class="graph" transform="scale(1 1) rotate(0) translate(4 179)">
<title>grafi</title>
<polygon fill="white" stroke="none" points="-4,4 -4,-179 884,-179 884,4 -4,4"/>
<text text-anchor="middle" x="440" y="-159.8" font-family="Times New Roman,serif" font-size="14.00">Hospital San Juan de Dios</text>
<g id="clust7" class="cluster"><title>cluster_9</title>
<polygon fill="#a2cd5a" stroke="#a2cd5a" points="640,-8 640,-144 872,-144 872,-8 640,-8"/>
<text text-anchor="middle" x="756" y="-128.8" font-family="Times New Roman,serif" font-size="14.00">Consulta 2</text>
</g>
<g id="clust8" class="cluster"><title>cluster_10</title>
<polygon fill="#838b83" stroke="#838b83" points="730,-16 730,-113 864,-113 864,-16 730,-16"/>
<text text-anchor="middle" x="797" y="-97.8" font-family="Times New Roman,serif" font-size="14.00">Paciente en Atencion</text>
</g>
<g id="clust9" class="cluster"><title>cluster_12</title>
<polygon fill="gray" stroke="gray" points="648,-16 648,-113 722,-113 722,-16 648,-16"/>
<text text-anchor="middle" x="685" y="-97.8" font-family="Times New Roman,serif" font-size="14.00">En espera</text>
</g>
<g id="clust1" class="cluster"><title>cluster_1</title>
<polygon fill="#ff7f24" stroke="#ff7f24" points="8,-8 8,-144 392,-144 392,-8 8,-8"/>
<text text-anchor="middle" x="200" y="-128.8" font-family="Times New Roman,serif" font-size="14.00">Rayos X</text>
</g>
<g id="clust2" class="cluster"><title>cluster_2</title>
<polygon fill="#838b83" stroke="#838b83" points="250,-16 250,-113 384,-113 384,-16 250,-16"/>
<text text-anchor="middle" x="317" y="-97.8" font-family="Times New Roman,serif" font-size="14.00">Paciente en Atencion</text>
</g>
<g id="clust3" class="cluster"><title>cluster_3</title>
<polygon fill="gray" stroke="gray" points="16,-16 16,-113 242,-113 242,-16 16,-16"/>
<text text-anchor="middle" x="129" y="-97.8" font-family="Times New Roman,serif" font-size="14.00">En espera</text>
</g>
<g id="clust4" class="cluster"><title>cluster_4</title>
<polygon fill="#eead0e" stroke="#eead0e" points="400,-8 400,-144 632,-144 632,-8 400,-8"/>
<text text-anchor="middle" x="516" y="-128.8" font-family="Times New Roman,serif" font-size="14.00">Consulta 1</text>
</g>
<g id="clust6" class="cluster"><title>cluster_7</title>
<polygon fill="gray" stroke="gray" points="550,-16 550,-113 624,-113 624,-16 550,-16"/>
<text text-anchor="middle" x="587" y="-97.8" font-family="Times New Roman,serif" font-size="14.00">En espera</text>
</g>
<g id="clust5" class="cluster"><title>cluster_5</title>
<polygon fill="#838b83" stroke="#838b83" points="408,-16 408,-113 542,-113 542,-16 408,-16"/>
<text text-anchor="middle" x="475" y="-97.8" font-family="Times New Roman,serif" font-size="14.00">Paciente en Atencion</text>
</g>
<!-- P12 -->
<g id="node1" class="node"><title>P12</title>
<ellipse fill="lightgrey" stroke="black" cx="317" cy="-53" rx="29" ry="29"/>
<text text-anchor="middle" x="317" y="-49.3" font-family="Times New Roman,serif" font-size="14.00">P12</text>
</g>
<!-- P14 -->
<g id="node2" class="node"><title>P14</title>
<ellipse fill="lightgrey" stroke="black" cx="205" cy="-53" rx="29" ry="29"/>
<text text-anchor="middle" x="205" y="-49.3" font-family="Times New Roman,serif" font-size="14.00">P14</text>
</g>
<!-- P16 -->
<g id="node3" class="node"><title>P16</title>
<ellipse fill="lightgrey" stroke="black" cx="129" cy="-53" rx="29" ry="29"/>
<text text-anchor="middle" x="129" y="-49.3" font-family="Times New Roman,serif" font-size="14.00">P16</text>
</g>
<!-- P17 -->
<g id="node4" class="node"><title>P17</title>
<ellipse fill="lightgrey" stroke="black" cx="53" cy="-53" rx="29" ry="29"/>
<text text-anchor="middle" x="53" y="-49.3" font-family="Times New Roman,serif" font-size="14.00">P17</text>
</g>
<!-- inv6 -->
<g id="node5" class="node"><title>inv6</title>
<polygon fill="lightgrey" stroke="none" points="504,-82 446,-82 446,-24 504,-24 504,-82"/>
</g>
<!-- inv8 -->
<g id="node6" class="node"><title>inv8</title>
<polygon fill="lightgrey" stroke="none" points="616,-82 558,-82 558,-24 616,-24 616,-82"/>
</g>
<!-- inv11 -->
<g id="node7" class="node"><title>inv11</title>
<polygon fill="lightgrey" stroke="none" points="826,-82 768,-82 768,-24 826,-24 826,-82"/>
</g>
<!-- inv13 -->
<g id="node8" class="node"><title>inv13</title>
<polygon fill="lightgrey" stroke="none" points="714,-82 656,-82 656,-24 714,-24 714,-82"/>
</g>
</g>
</svg>
