<?xml version="1.0" encoding="UTF-8" standalone="no"?>
<!DOCTYPE svg PUBLIC "-//W3C//DTD SVG 1.1//EN"
 "http://www.w3.org/Graphics/SVG/1.1/DTD/svg11.dtd">
<!-- Generated by graphviz version 2.38.0 (20140413.2041)
 -->
<!-- Title: grafi Pages: 1 -->
<svg width="727pt" height="174pt"
 viewBox="0.00 0.00 727.00 174.40" xmlns="http://www.w3.org/2000/svg" xmlns:xlink="http://www.w3.org/1999/xlink">
<g id="graph0" class="graph" transform="scale(1 1) rotate(0) translate(4 170.396)">
<title>grafi</title>
<polygon fill="white" stroke="none" points="-4,4 -4,-170.396 723,-170.396 723,4 -4,4"/>
<text text-anchor="middle" x="359.5" y="-151.196" font-family="Times New Roman,serif" font-size="14.00">Hospital San Juan de Dios</text>
<g id="clust1" class="cluster"><title>cluster_1</title>
<polygon fill="#ff7f24" stroke="#ff7f24" points="8,-8 8,-135.396 237,-135.396 237,-8 8,-8"/>
<text text-anchor="middle" x="122.5" y="-120.196" font-family="Times New Roman,serif" font-size="14.00">Rayos X</text>
</g>
<g id="clust2" class="cluster"><title>cluster_2</title>
<polygon fill="#838b83" stroke="#838b83" points="95,-16 95,-104.396 229,-104.396 229,-16 95,-16"/>
<text text-anchor="middle" x="162" y="-89.1956" font-family="Times New Roman,serif" font-size="14.00">Paciente en Atencion</text>
</g>
<g id="clust3" class="cluster"><title>cluster_3</title>
<polygon fill="gray" stroke="gray" points="16,-16 16,-104.396 87,-104.396 87,-16 16,-16"/>
<text text-anchor="middle" x="51.5" y="-89.1956" font-family="Times New Roman,serif" font-size="14.00">En espera</text>
</g>
<g id="clust7" class="cluster"><title>cluster_9</title>
<polygon fill="#a2cd5a" stroke="#a2cd5a" points="482,-14.6978 482,-128.698 711,-128.698 711,-14.6978 482,-14.6978"/>
<text text-anchor="middle" x="596.5" y="-113.498" font-family="Times New Roman,serif" font-size="14.00">Consulta 2</text>
</g>
<g id="clust9" class="cluster"><title>cluster_12</title>
<polygon fill="gray" stroke="gray" points="632,-22.6978 632,-97.6978 703,-97.6978 703,-22.6978 632,-22.6978"/>
<text text-anchor="middle" x="667.5" y="-82.4978" font-family="Times New Roman,serif" font-size="14.00">En espera</text>
</g>
<g id="clust8" class="cluster"><title>cluster_10</title>
<polygon fill="#838b83" stroke="#838b83" points="490,-22.6978 490,-97.6978 624,-97.6978 624,-22.6978 490,-22.6978"/>
<text text-anchor="middle" x="557" y="-82.4978" font-family="Times New Roman,serif" font-size="14.00">Paciente en Atencion</text>
</g>
<g id="clust4" class="cluster"><title>cluster_4</title>
<polygon fill="#eead0e" stroke="#eead0e" points="245,-14.6978 245,-128.698 474,-128.698 474,-14.6978 245,-14.6978"/>
<text text-anchor="middle" x="359.5" y="-113.498" font-family="Times New Roman,serif" font-size="14.00">Consulta 1</text>
</g>
<g id="clust6" class="cluster"><title>cluster_7</title>
<polygon fill="gray" stroke="gray" points="395,-22.6978 395,-97.6978 466,-97.6978 466,-22.6978 395,-22.6978"/>
<text text-anchor="middle" x="430.5" y="-82.4978" font-family="Times New Roman,serif" font-size="14.00">En espera</text>
</g>
<g id="clust5" class="cluster"><title>cluster_5</title>
<polygon fill="#838b83" stroke="#838b83" points="253,-22.6978 253,-97.6978 387,-97.6978 387,-22.6978 253,-22.6978"/>
<text text-anchor="middle" x="320" y="-82.4978" font-family="Times New Roman,serif" font-size="14.00">Paciente en Atencion</text>
</g>
<!-- P16 -->
<g id="node1" class="node"><title>P16</title>
<ellipse fill="lightgrey" stroke="black" cx="162" cy="-48.6978" rx="24.8972" ry="24.8972"/>
<text text-anchor="middle" x="162" y="-44.9978" font-family="Times New Roman,serif" font-size="14.00">P16</text>
</g>
<!-- P17 -->
<g id="node2" class="node"><title>P17</title>
<ellipse fill="lightgrey" stroke="black" cx="51" cy="-48.6978" rx="24.8972" ry="24.8972"/>
<text text-anchor="middle" x="51" y="-44.9978" font-family="Times New Roman,serif" font-size="14.00">P17</text>
</g>
<!-- inv6 -->
<g id="node3" class="node"><title>inv6</title>
<polygon fill="lightgrey" stroke="none" points="347,-66.6978 293,-66.6978 293,-30.6978 347,-30.6978 347,-66.6978"/>
</g>
<!-- inv8 -->
<g id="node4" class="node"><title>inv8</title>
<polygon fill="lightgrey" stroke="none" points="457,-66.6978 403,-66.6978 403,-30.6978 457,-30.6978 457,-66.6978"/>
</g>
<!-- inv11 -->
<g id="node5" class="node"><title>inv11</title>
<polygon fill="lightgrey" stroke="none" points="584,-66.6978 530,-66.6978 530,-30.6978 584,-30.6978 584,-66.6978"/>
</g>
<!-- inv13 -->
<g id="node6" class="node"><title>inv13</title>
<polygon fill="lightgrey" stroke="none" points="694,-66.6978 640,-66.6978 640,-30.6978 694,-30.6978 694,-66.6978"/>
</g>
</g>
</svg>
