<?xml version="1.0" encoding="UTF-8" standalone="no"?>
<!DOCTYPE svg PUBLIC "-//W3C//DTD SVG 1.1//EN"
 "http://www.w3.org/Graphics/SVG/1.1/DTD/svg11.dtd">
<!-- Generated by graphviz version 2.38.0 (20140413.2041)
 -->
<!-- Title: grafi Pages: 1 -->
<svg width="1572pt" height="183pt"
 viewBox="0.00 0.00 1572.00 183.00" xmlns="http://www.w3.org/2000/svg" xmlns:xlink="http://www.w3.org/1999/xlink">
<g id="graph0" class="graph" transform="scale(1 1) rotate(0) translate(4 179)">
<title>grafi</title>
<polygon fill="white" stroke="none" points="-4,4 -4,-179 1568,-179 1568,4 -4,4"/>
<text text-anchor="middle" x="782" y="-159.8" font-family="Times New Roman,serif" font-size="14.00">Hospital San Juan de Dios</text>
<g id="clust7" class="cluster"><title>cluster_7</title>
<polygon fill="#a2cd5a" stroke="#a2cd5a" points="1172,-8 1172,-144 1556,-144 1556,-8 1172,-8"/>
<text text-anchor="middle" x="1364" y="-128.8" font-family="Times New Roman,serif" font-size="14.00">Consulta 2</text>
</g>
<g id="clust8" class="cluster"><title>cluster_8</title>
<polygon fill="#838b83" stroke="#838b83" points="1414,-16 1414,-113 1548,-113 1548,-16 1414,-16"/>
<text text-anchor="middle" x="1481" y="-97.8" font-family="Times New Roman,serif" font-size="14.00">Paciente en Atencion</text>
</g>
<g id="clust9" class="cluster"><title>cluster_9</title>
<polygon fill="gray" stroke="gray" points="1180,-16 1180,-113 1406,-113 1406,-16 1180,-16"/>
<text text-anchor="middle" x="1293" y="-97.8" font-family="Times New Roman,serif" font-size="14.00">En espera</text>
</g>
<g id="clust4" class="cluster"><title>cluster_4</title>
<polygon fill="#eead0e" stroke="#eead0e" points="856,-8 856,-144 1164,-144 1164,-8 856,-8"/>
<text text-anchor="middle" x="1010" y="-128.8" font-family="Times New Roman,serif" font-size="14.00">Consulta 1</text>
</g>
<g id="clust6" class="cluster"><title>cluster_6</title>
<polygon fill="gray" stroke="gray" points="1006,-16 1006,-113 1156,-113 1156,-16 1006,-16"/>
<text text-anchor="middle" x="1081" y="-97.8" font-family="Times New Roman,serif" font-size="14.00">En espera</text>
</g>
<g id="clust5" class="cluster"><title>cluster_5</title>
<polygon fill="#838b83" stroke="#838b83" points="864,-16 864,-113 998,-113 998,-16 864,-16"/>
<text text-anchor="middle" x="931" y="-97.8" font-family="Times New Roman,serif" font-size="14.00">Paciente en Atencion</text>
</g>
<g id="clust1" class="cluster"><title>cluster_1</title>
<polygon fill="#ff7f24" stroke="#ff7f24" points="8,-8 8,-144 848,-144 848,-8 8,-8"/>
<text text-anchor="middle" x="428" y="-128.8" font-family="Times New Roman,serif" font-size="14.00">Rayos X</text>
</g>
<g id="clust3" class="cluster"><title>cluster_3</title>
<polygon fill="gray" stroke="gray" points="158,-16 158,-113 840,-113 840,-16 158,-16"/>
<text text-anchor="middle" x="499" y="-97.8" font-family="Times New Roman,serif" font-size="14.00">En espera</text>
</g>
<g id="clust2" class="cluster"><title>cluster_2</title>
<polygon fill="#838b83" stroke="#838b83" points="16,-16 16,-113 150,-113 150,-16 16,-16"/>
<text text-anchor="middle" x="83" y="-97.8" font-family="Times New Roman,serif" font-size="14.00">Paciente en Atencion</text>
</g>
<!-- P1 -->
<g id="node1" class="node"><title>P1</title>
<ellipse fill="lightgrey" stroke="black" cx="83" cy="-53" rx="29" ry="29"/>
<text text-anchor="middle" x="83" y="-49.3" font-family="Times New Roman,serif" font-size="14.00">P1</text>
</g>
<!-- P3 -->
<g id="node2" class="node"><title>P3</title>
<ellipse fill="lightgrey" stroke="black" cx="803" cy="-53" rx="29" ry="29"/>
<text text-anchor="middle" x="803" y="-49.3" font-family="Times New Roman,serif" font-size="14.00">P3</text>
</g>
<!-- P6 -->
<g id="node3" class="node"><title>P6</title>
<ellipse fill="lightgrey" stroke="black" cx="727" cy="-53" rx="29" ry="29"/>
<text text-anchor="middle" x="727" y="-49.3" font-family="Times New Roman,serif" font-size="14.00">P6</text>
</g>
<!-- P8 -->
<g id="node4" class="node"><title>P8</title>
<ellipse fill="lightgrey" stroke="black" cx="651" cy="-53" rx="29" ry="29"/>
<text text-anchor="middle" x="651" y="-49.3" font-family="Times New Roman,serif" font-size="14.00">P8</text>
</g>
<!-- P9 -->
<g id="node5" class="node"><title>P9</title>
<ellipse fill="lightgrey" stroke="black" cx="575" cy="-53" rx="29" ry="29"/>
<text text-anchor="middle" x="575" y="-49.3" font-family="Times New Roman,serif" font-size="14.00">P9</text>
</g>
<!-- P10 -->
<g id="node6" class="node"><title>P10</title>
<ellipse fill="lightgrey" stroke="black" cx="499" cy="-53" rx="29" ry="29"/>
<text text-anchor="middle" x="499" y="-49.3" font-family="Times New Roman,serif" font-size="14.00">P10</text>
</g>
<!-- P12 -->
<g id="node7" class="node"><title>P12</title>
<ellipse fill="lightgrey" stroke="black" cx="423" cy="-53" rx="29" ry="29"/>
<text text-anchor="middle" x="423" y="-49.3" font-family="Times New Roman,serif" font-size="14.00">P12</text>
</g>
<!-- P14 -->
<g id="node8" class="node"><title>P14</title>
<ellipse fill="lightgrey" stroke="black" cx="347" cy="-53" rx="29" ry="29"/>
<text text-anchor="middle" x="347" y="-49.3" font-family="Times New Roman,serif" font-size="14.00">P14</text>
</g>
<!-- P16 -->
<g id="node9" class="node"><title>P16</title>
<ellipse fill="lightgrey" stroke="black" cx="271" cy="-53" rx="29" ry="29"/>
<text text-anchor="middle" x="271" y="-49.3" font-family="Times New Roman,serif" font-size="14.00">P16</text>
</g>
<!-- P17 -->
<g id="node10" class="node"><title>P17</title>
<ellipse fill="lightgrey" stroke="black" cx="195" cy="-53" rx="29" ry="29"/>
<text text-anchor="middle" x="195" y="-49.3" font-family="Times New Roman,serif" font-size="14.00">P17</text>
</g>
<!-- P2 -->
<g id="node11" class="node"><title>P2</title>
<ellipse fill="lightgrey" stroke="black" cx="931" cy="-53" rx="29" ry="29"/>
<text text-anchor="middle" x="931" y="-49.3" font-family="Times New Roman,serif" font-size="14.00">P2</text>
</g>
<!-- P5 -->
<g id="node12" class="node"><title>P5</title>
<ellipse fill="lightgrey" stroke="black" cx="1119" cy="-53" rx="29" ry="29"/>
<text text-anchor="middle" x="1119" y="-49.3" font-family="Times New Roman,serif" font-size="14.00">P5</text>
</g>
<!-- P15 -->
<g id="node13" class="node"><title>P15</title>
<ellipse fill="lightgrey" stroke="black" cx="1043" cy="-53" rx="29" ry="29"/>
<text text-anchor="middle" x="1043" y="-49.3" font-family="Times New Roman,serif" font-size="14.00">P15</text>
</g>
<!-- P4 -->
<g id="node14" class="node"><title>P4</title>
<ellipse fill="lightgrey" stroke="black" cx="1481" cy="-53" rx="29" ry="29"/>
<text text-anchor="middle" x="1481" y="-49.3" font-family="Times New Roman,serif" font-size="14.00">P4</text>
</g>
<!-- P7 -->
<g id="node15" class="node"><title>P7</title>
<ellipse fill="lightgrey" stroke="black" cx="1369" cy="-53" rx="29" ry="29"/>
<text text-anchor="middle" x="1369" y="-49.3" font-family="Times New Roman,serif" font-size="14.00">P7</text>
</g>
<!-- P11 -->
<g id="node16" class="node"><title>P11</title>
<ellipse fill="lightgrey" stroke="black" cx="1293" cy="-53" rx="29" ry="29"/>
<text text-anchor="middle" x="1293" y="-49.3" font-family="Times New Roman,serif" font-size="14.00">P11</text>
</g>
<!-- P13 -->
<g id="node17" class="node"><title>P13</title>
<ellipse fill="lightgrey" stroke="black" cx="1217" cy="-53" rx="29" ry="29"/>
<text text-anchor="middle" x="1217" y="-49.3" font-family="Times New Roman,serif" font-size="14.00">P13</text>
</g>
</g>
</svg>
