<?xml version="1.0" encoding="UTF-8" standalone="no"?>
<!DOCTYPE svg PUBLIC "-//W3C//DTD SVG 1.1//EN"
 "http://www.w3.org/Graphics/SVG/1.1/DTD/svg11.dtd">
<!-- Generated by graphviz version 2.38.0 (20140413.2041)
 -->
<!-- Title: grafi Pages: 1 -->
<svg width="1116pt" height="183pt"
 viewBox="0.00 0.00 1116.00 183.00" xmlns="http://www.w3.org/2000/svg" xmlns:xlink="http://www.w3.org/1999/xlink">
<g id="graph0" class="graph" transform="scale(1 1) rotate(0) translate(4 179)">
<title>grafi</title>
<polygon fill="white" stroke="none" points="-4,4 -4,-179 1112,-179 1112,4 -4,4"/>
<text text-anchor="middle" x="554" y="-159.8" font-family="Times New Roman,serif" font-size="14.00">Hospital San Juan de Dios</text>
<g id="clust7" class="cluster"><title>cluster_9</title>
<polygon fill="#a2cd5a" stroke="#a2cd5a" points="868,-8 868,-144 1100,-144 1100,-8 868,-8"/>
<text text-anchor="middle" x="984" y="-128.8" font-family="Times New Roman,serif" font-size="14.00">Consulta 2</text>
</g>
<g id="clust8" class="cluster"><title>cluster_10</title>
<polygon fill="#838b83" stroke="#838b83" points="958,-16 958,-113 1092,-113 1092,-16 958,-16"/>
<text text-anchor="middle" x="1025" y="-97.8" font-family="Times New Roman,serif" font-size="14.00">Paciente en Atencion</text>
</g>
<g id="clust9" class="cluster"><title>cluster_11</title>
<polygon fill="gray" stroke="gray" points="876,-16 876,-113 950,-113 950,-16 876,-16"/>
<text text-anchor="middle" x="913" y="-97.8" font-family="Times New Roman,serif" font-size="14.00">En espera</text>
</g>
<g id="clust1" class="cluster"><title>cluster_1</title>
<polygon fill="#ff7f24" stroke="#ff7f24" points="8,-8 8,-144 620,-144 620,-8 8,-8"/>
<text text-anchor="middle" x="314" y="-128.8" font-family="Times New Roman,serif" font-size="14.00">Rayos X</text>
</g>
<g id="clust2" class="cluster"><title>cluster_2</title>
<polygon fill="#838b83" stroke="#838b83" points="478,-16 478,-113 612,-113 612,-16 478,-16"/>
<text text-anchor="middle" x="545" y="-97.8" font-family="Times New Roman,serif" font-size="14.00">Paciente en Atencion</text>
</g>
<g id="clust3" class="cluster"><title>cluster_3</title>
<polygon fill="gray" stroke="gray" points="16,-16 16,-113 470,-113 470,-16 16,-16"/>
<text text-anchor="middle" x="243" y="-97.8" font-family="Times New Roman,serif" font-size="14.00">En espera</text>
</g>
<g id="clust4" class="cluster"><title>cluster_4</title>
<polygon fill="#eead0e" stroke="#eead0e" points="628,-8 628,-144 860,-144 860,-8 628,-8"/>
<text text-anchor="middle" x="744" y="-128.8" font-family="Times New Roman,serif" font-size="14.00">Consulta 1</text>
</g>
<g id="clust6" class="cluster"><title>cluster_7</title>
<polygon fill="gray" stroke="gray" points="778,-16 778,-113 852,-113 852,-16 778,-16"/>
<text text-anchor="middle" x="815" y="-97.8" font-family="Times New Roman,serif" font-size="14.00">En espera</text>
</g>
<g id="clust5" class="cluster"><title>cluster_5</title>
<polygon fill="#838b83" stroke="#838b83" points="636,-16 636,-113 770,-113 770,-16 636,-16"/>
<text text-anchor="middle" x="703" y="-97.8" font-family="Times New Roman,serif" font-size="14.00">Paciente en Atencion</text>
</g>
<!-- P8 -->
<g id="node1" class="node"><title>P8</title>
<ellipse fill="lightgrey" stroke="black" cx="545" cy="-53" rx="29" ry="29"/>
<text text-anchor="middle" x="545" y="-49.3" font-family="Times New Roman,serif" font-size="14.00">P8</text>
</g>
<!-- P9 -->
<g id="node2" class="node"><title>P9</title>
<ellipse fill="lightgrey" stroke="black" cx="433" cy="-53" rx="29" ry="29"/>
<text text-anchor="middle" x="433" y="-49.3" font-family="Times New Roman,serif" font-size="14.00">P9</text>
</g>
<!-- P10 -->
<g id="node3" class="node"><title>P10</title>
<ellipse fill="lightgrey" stroke="black" cx="357" cy="-53" rx="29" ry="29"/>
<text text-anchor="middle" x="357" y="-49.3" font-family="Times New Roman,serif" font-size="14.00">P10</text>
</g>
<!-- P12 -->
<g id="node4" class="node"><title>P12</title>
<ellipse fill="lightgrey" stroke="black" cx="281" cy="-53" rx="29" ry="29"/>
<text text-anchor="middle" x="281" y="-49.3" font-family="Times New Roman,serif" font-size="14.00">P12</text>
</g>
<!-- P14 -->
<g id="node5" class="node"><title>P14</title>
<ellipse fill="lightgrey" stroke="black" cx="205" cy="-53" rx="29" ry="29"/>
<text text-anchor="middle" x="205" y="-49.3" font-family="Times New Roman,serif" font-size="14.00">P14</text>
</g>
<!-- P16 -->
<g id="node6" class="node"><title>P16</title>
<ellipse fill="lightgrey" stroke="black" cx="129" cy="-53" rx="29" ry="29"/>
<text text-anchor="middle" x="129" y="-49.3" font-family="Times New Roman,serif" font-size="14.00">P16</text>
</g>
<!-- P17 -->
<g id="node7" class="node"><title>P17</title>
<ellipse fill="lightgrey" stroke="black" cx="53" cy="-53" rx="29" ry="29"/>
<text text-anchor="middle" x="53" y="-49.3" font-family="Times New Roman,serif" font-size="14.00">P17</text>
</g>
<!-- inv6 -->
<g id="node8" class="node"><title>inv6</title>
<polygon fill="lightgrey" stroke="none" points="732,-82 674,-82 674,-24 732,-24 732,-82"/>
</g>
<!-- inv8 -->
<g id="node9" class="node"><title>inv8</title>
<polygon fill="lightgrey" stroke="none" points="844,-82 786,-82 786,-24 844,-24 844,-82"/>
</g>
<!-- P13 -->
<g id="node10" class="node"><title>P13</title>
<ellipse fill="lightgrey" stroke="black" cx="1025" cy="-53" rx="29" ry="29"/>
<text text-anchor="middle" x="1025" y="-49.3" font-family="Times New Roman,serif" font-size="14.00">P13</text>
</g>
<!-- inv12 -->
<g id="node11" class="node"><title>inv12</title>
<polygon fill="lightgrey" stroke="none" points="942,-82 884,-82 884,-24 942,-24 942,-82"/>
</g>
</g>
</svg>
